<svg width="95" height="34" viewBox="0 0 95 34" fill="none" xmlns="http://www.w3.org/2000/svg">
<path d="M12.843 1.85936C6.74648 8.94994 0.901075 17.7428 0.842518 24.3153C0.81967 26.7882 1.61681 28.947 3.52887 30.5822C6.28071 32.9372 9.31257 33.7675 12.3297 33.7725C16.7388 33.7786 21.117 32.0169 24.545 30.6586C30.3181 28.372 94.1357 0.92568 94.1357 0.92568C94.7518 0.62012 94.6358 0.239452 93.8658 0.429517C93.5546 0.506514 24.3901 19.0694 24.3901 19.0694C23.08 19.4364 21.7263 19.6284 20.3648 19.6401C15.0494 19.6714 10.3196 16.7493 10.3578 10.5918C10.3726 8.1824 11.1173 5.27692 12.843 1.85936Z" fill="#111111"/>
</svg>
