<svg width="58" height="58" viewBox="0 0 58 58" fill="none" xmlns="http://www.w3.org/2000/svg">
<path fill-rule="evenodd" clip-rule="evenodd" d="M28.7785 0.283203C44.5059 0.283203 57.4263 13.1838 57.4263 28.9314C57.4263 44.6589 44.5059 57.5795 28.7785 57.5795C13.0306 57.5795 0.130035 44.6589 0.130035 28.9314C0.130035 13.1838 13.0309 0.283203 28.7785 0.283203ZM28.7785 2.12043C21.2478 2.12043 13.8991 5.39074 8.85168 10.9834C4.45043 15.8892 1.98751 22.3496 1.98751 28.9314C1.98751 36.4617 5.23821 43.791 10.8506 48.8381C15.7363 53.2394 22.1968 55.7226 28.7785 55.7226C36.3087 55.7226 43.6577 52.4517 48.685 46.8597C53.106 41.9739 55.5697 35.5134 55.5697 28.9314C55.5697 21.3806 52.318 14.052 46.7061 9.00457C41.8209 4.60368 35.3598 2.12043 28.7785 2.12043ZM24.0139 4.60368H29.4851C31.0197 4.60368 32.816 4.84574 32.816 6.7641C32.816 7.71271 32.2511 8.2176 31.4236 8.58091C32.574 8.84338 33.3008 9.69116 33.3008 10.903C33.3008 12.8009 31.8679 13.4871 30.1912 13.4871H24.0139V4.60368ZM10.0231 24.3688H4.55162V33.2318H10.7297C12.4052 33.2318 13.8387 32.5453 13.8387 30.6477C13.8387 29.4562 13.1118 28.5881 11.9611 28.3257C12.7889 27.9828 13.3542 27.4779 13.3542 26.5088C13.3542 24.6113 11.5574 24.3688 10.0231 24.3688ZM20.7836 24.3688L25.1445 33.2314H22.6408L21.8334 31.4751H17.3514L16.544 33.2314H14.0407L18.4012 24.3688H20.7836ZM28.5768 27.8816L31.1816 24.3688H33.9062L29.6875 29.8396V33.2314H27.4662V29.8396L23.2469 24.3688H25.9723L28.5768 27.8816ZM42.9515 31.6364V33.2314H34.3505V24.3688H42.7096V25.9636H36.5921V27.9019H42.5072V29.4967H36.5921V31.6364H42.9515ZM46.5037 33.2314V29.6984H49.0681L51.3898 33.2314H54.0343L51.3898 29.6984C52.8029 29.3955 53.6916 28.5681 53.6916 27.0134C53.6916 24.9746 51.9753 24.3688 50.2393 24.3688H44.2837V33.2314H46.5037ZM34.2093 23.339L29.8692 14.4761H27.4866L23.1258 23.339H25.6086L26.4368 21.5826H30.9189L31.7258 23.339H34.2093ZM33.6444 41.4486V43.0437H24.4377V34.1808H33.4222V35.7759H26.6789V37.7136H33.2199V39.3086H26.6789V41.4486H33.6444ZM26.6789 52.9362V49.403L29.2234 49.4026L31.5648 52.9358H34.2093L31.5648 49.4026C32.9779 49.1005 33.8459 48.252 33.8459 46.6973C33.8459 44.6589 32.1494 44.0528 30.4134 44.0528H24.4377V52.9362H26.6789ZM26.2348 8.01557H29.4842C30.0905 8.01557 30.6149 7.81391 30.6761 7.14738C30.7165 6.38046 30.1112 6.21882 29.4842 6.21882H26.2348V8.01557ZM49.9973 28.1036H46.5037V25.9636H49.9973C50.7241 25.9636 51.4302 26.1656 51.4302 27.0338C51.4302 27.9019 50.7043 28.1036 49.9973 28.1036ZM10.0227 27.7807H6.77249V25.9639H10.0227C10.6489 25.9639 11.2542 26.1455 11.1938 26.8926C11.1534 27.5791 10.6285 27.7807 10.0227 27.7807ZM19.6127 26.6501L21.1066 29.88H18.0984L19.5723 26.6501L19.5926 26.6701L19.6127 26.6501ZM6.77249 31.6364H10.0227C10.8505 31.6364 11.5571 31.3939 11.5571 30.4457C11.5571 29.4155 10.8709 29.315 10.0227 29.315H6.77249V31.6364ZM29.4842 11.8716H26.2348V9.57027H29.4842C30.3334 9.57027 31.0395 9.6711 31.0395 10.6805C31.0395 11.6295 30.3334 11.8716 29.4842 11.8716ZM30.1714 19.9676L28.6777 16.7373V16.7777L28.6576 16.7373L27.1633 19.9676H30.1714ZM30.1508 47.7876H26.6789V45.6679H30.1508C30.8776 45.6679 31.5846 45.8696 31.5846 46.7378C31.5846 47.5859 30.8776 47.7876 30.1508 47.7876Z" fill="#111111"/>
</svg>
