<svg width="103" height="33" viewBox="0 0 103 33" fill="none" xmlns="http://www.w3.org/2000/svg">
<mask id="mask0_0_381" style="mask-type:luminance" maskUnits="userSpaceOnUse" x="0" y="0" width="103" height="33">
<path d="M102.397 0.784058H0.753906V32.6678H102.397V0.784058Z" fill="white"/>
</mask>
<g mask="url(#mask0_0_381)">
<path d="M71.9581 3.23128C71.9581 3.23128 70.0529 3.98983 67.8365 6.43224C65.6202 8.87465 64.3294 11.6212 65.2847 12.3516C65.6517 12.6292 66.4981 12.6821 68.0335 11.2939C69.4502 10.0639 70.562 8.52187 71.2816 6.78916C72.2738 4.37149 71.9581 3.26105 71.9581 3.23461V3.23128ZM84.086 7.62534C81.6232 6.3628 79.8242 4.81602 77.9514 3.85922C76.165 2.94209 75.0101 2.55872 73.5655 2.75203C73.364 2.78801 73.1652 2.83766 72.9709 2.9008C72.9709 2.9008 73.7148 5.44072 70.7545 9.7075C67.7574 14.0338 65.0373 14.0041 64.2637 12.8159C63.4542 11.5616 64.5003 9.00517 66.2471 6.7297C68.0758 4.35008 71.2888 2.37693 71.2888 2.37693C71.2888 2.37693 70.2643 1.75061 67.7493 3.17677C65.2946 4.56155 61.0714 7.86658 57.1514 13.4406C53.2314 19.0145 52.4551 22.0817 51.8929 24.4959C51.3307 26.9103 51.8416 29.4965 54.5186 29.4965C57.1955 29.4965 60.3122 25.4131 61.1919 23.9936C62.8263 21.3495 63.8922 17.2942 61.6678 17.8511C60.5722 18.1255 59.6844 19.3384 59.124 20.5067C58.7705 21.2572 58.5006 22.0441 58.318 22.8533C57.5409 23.1736 56.8105 23.5984 56.1484 24.1159C55.4109 24.6619 54.7218 25.27 54.0895 25.9337C54.0895 25.9337 54.0994 24.0035 55.6375 20.8802C57.1757 17.7569 60.0001 16.3309 61.6003 16.1969C63.0413 16.0813 64.9168 17.3041 63.3265 21.8156C61.737 26.3269 57.047 31.8116 52.1214 31.8795C47.575 31.9422 44.6004 26.1402 50.9278 16.0152C57.9312 4.82924 66.1464 1.39702 68.8134 1.01527C71.4804 0.633522 72.3475 1.81016 72.3475 1.81016C73.9531 1.15146 75.6874 0.865505 77.4198 0.973895C80.6769 1.19373 83.1946 3.49897 86.5201 5.11843C85.6556 5.94471 84.8308 6.81228 84.0878 7.62534H84.086ZM98.7191 3.85922C96.4613 5.30688 93.3383 6.61898 90.3375 6.33806C89.5775 7.12297 88.7643 8.03182 87.9494 9.02334C93.153 10.0529 97.7125 6.82883 100.137 4.08401C101.021 3.09707 101.78 2.00544 102.397 0.833482C101.293 1.98304 100.058 2.99867 98.7173 3.85922H98.7191ZM91.7884 18.5204C91.828 18.4518 91.8595 18.3792 91.8838 18.3039C91.8685 18.1847 91.8127 18.0745 91.7255 17.9915C91.6391 17.9085 91.5258 17.8578 91.4062 17.8479C90.9105 17.8247 90.235 17.9189 88.4621 19.8821C86.9905 21.5034 85.7249 23.2993 84.6923 25.2296C83.6776 27.0838 83.2657 28.4653 83.8494 28.8222C84.0392 28.9205 84.2587 28.9429 84.4638 28.885C84.8596 28.7908 85.3066 28.4207 85.9876 27.6325C86.3069 27.2622 86.6604 26.7385 87.0832 26.1584C88.257 24.562 91.2047 19.5367 91.7884 18.5204ZM73.3694 20.6555C73.6653 19.8821 74.0413 18.3635 73.2587 17.7668C72.4177 17.134 70.2724 18.6196 70.2607 20.1432C70.2463 21.7031 71.771 22.4088 72.1362 22.5079C72.3448 22.5641 72.4177 22.5559 72.5184 22.389C72.8414 21.8316 73.1256 21.2523 73.3694 20.6555ZM71.7467 23.4929C71.2151 23.2474 70.7185 22.9311 70.2724 22.5525C69.8244 22.1769 69.4502 21.7213 69.1687 21.209C69.139 21.1595 69.1093 21.1975 69.0761 21.2421C69.0428 21.2868 68.9105 21.4074 67.7673 23.0831C66.6231 24.7587 64.8673 28.2306 66.4567 28.8222C67.4749 29.2007 69.1687 27.4176 70.0925 26.2361C70.7212 25.4113 71.2924 24.5432 71.7988 23.6383C71.8474 23.5375 71.7979 23.5144 71.7467 23.4929ZM89.7807 27.5036C89.349 28.1943 88.857 29.5196 90.2764 28.695C92.0133 27.6919 94.4869 23.939 94.4869 23.939H95.6086C94.5877 25.5089 93.4507 27.0003 92.2076 28.4008C90.4482 30.3508 88.3011 32.1223 86.789 31.9472C85.0224 31.7406 85.5765 29.4221 85.5765 29.4221C85.5765 29.4221 83.0498 32.1124 81.3012 31.9191C78.94 31.658 79.6605 28.7397 79.6605 28.7397C79.6605 28.7397 76.9899 32.0165 75.1702 31.9158C72.3179 31.7506 73.0357 28.2802 73.8281 25.8362C74.2536 24.529 74.6467 23.5028 74.6467 23.5028C74.6467 23.5028 74.3642 23.5772 73.7561 23.668C73.4386 23.7126 72.8603 23.7457 72.8603 23.7457C72.8603 23.7457 71.672 25.8411 70.7221 27.1003C69.7714 28.3595 65.7326 32.7007 63.3561 31.8315C61.1587 31.0284 61.8855 27.6639 63.1645 24.9901C65.0319 21.0918 70.2841 15.4914 73.3127 16.2317C76.4529 16.9935 73.3838 22.7228 73.3838 22.7228C73.3838 22.7228 73.3838 22.7443 73.417 22.7592C73.48 22.7823 73.6437 22.8004 74.0215 22.7261C74.4137 22.6461 74.7987 22.5317 75.1702 22.3841C75.1702 22.3841 78.3265 15.7739 81.8139 11.4493C85.3003 7.12458 92.2562 -0.323276 94.9862 1.47797C95.6464 1.9208 95.3495 3.44608 94.45 5.29698C94.0453 5.42849 93.6342 5.53877 93.2177 5.62746C93.8195 4.53511 94.2171 3.61465 94.3367 2.97186C94.7478 0.737595 89.5307 5.45062 85.8032 10.514C83.5571 13.5664 81.562 16.7955 79.8368 20.1697C80.5105 19.7589 81.1536 19.2999 81.7608 18.7964C83.424 17.4176 85.0035 15.942 86.4931 14.3775C87.9278 12.9091 89.2734 11.3563 90.5219 9.72738C90.9195 9.70813 91.3144 9.66729 91.7075 9.60505C90.3456 11.4536 88.8597 13.2082 87.2621 14.8568C85.7744 16.3606 84.1652 17.9784 82.7673 19.1533C81.5179 20.2153 80.2011 21.194 78.8239 22.0833C78.8239 22.0833 75.5632 28.6586 77.3371 29.08C78.3796 29.3313 80.4385 26.1601 80.4385 26.1601C80.4385 26.1601 83.1254 22.0602 84.7454 20.211C86.9545 17.6991 88.857 16.2449 90.7567 16.2184C91.864 16.1987 92.517 17.3752 92.517 17.3752L93.0378 16.5688H96.2437C96.2437 16.5688 90.2566 26.7285 89.7772 27.4937L89.7807 27.5036ZM98.7173 3.85922C96.4595 5.30688 93.3365 6.61898 90.3357 6.33806C89.5757 7.12297 88.7625 8.03182 87.9476 9.02334C93.1512 10.0529 97.7107 6.82883 100.135 4.08401C101.019 3.09716 101.779 2.00553 102.397 0.833482C101.293 1.98304 100.058 2.99867 98.7173 3.85922ZM53.6946 8.84326H50.6453L48.9217 11.6278H51.9703L53.6946 8.84326ZM39.2577 18.4857C40.555 16.7076 44.1344 10.4759 44.1344 10.4759C44.1192 10.3569 44.0638 10.2467 43.9771 10.1636C43.8905 10.0806 43.778 10.0299 43.6584 10.0198C43.1626 9.99669 42.3364 10.1636 40.6955 12.2177C39.0545 14.2718 37.7804 15.9061 36.8517 17.6066C35.8338 19.4624 35.3892 20.7712 35.9742 21.1265C36.1641 21.2215 36.3821 21.2439 36.5873 21.1893C36.9673 21.0934 37.4647 20.7117 38.1473 19.9267C38.4679 19.5599 38.8314 19.0657 39.2577 18.4857ZM22.8978 10.0579C22.055 9.42164 19.9116 10.9106 19.9001 12.4309C19.8869 13.9925 21.8286 14.4701 22.0798 14.4817C22.1536 14.4878 22.2278 14.4723 22.293 14.4371C22.3378 14.4109 22.3735 14.3717 22.3954 14.3246C22.6237 13.8761 22.8289 13.416 23.0101 12.9465C23.306 12.1731 23.6811 10.6544 22.8978 10.0579ZM21.627 15.4335C21.0458 15.2519 20.4905 14.9965 19.9744 14.6734C19.4744 14.3474 19.0678 13.8969 18.7945 13.3662C18.7648 13.3167 18.7318 13.3546 18.702 13.3992C18.6723 13.4438 18.5004 13.6587 17.3535 15.341C16.2067 17.0232 14.5079 20.4638 16.0993 21.0554C17.1139 21.4404 18.8276 19.6425 19.758 18.4659C20.4542 17.5412 21.0975 16.578 21.6848 15.5806C21.7229 15.4798 21.6848 15.4567 21.6286 15.4385L21.627 15.4335ZM46.5288 16.4697H47.646C47.646 16.4697 42.0489 24.567 38.8876 24.1903C37.1227 23.9836 37.6465 21.8057 37.6465 21.8057C37.6465 21.8057 35.1678 24.7075 32.8906 24.1192C30.8249 23.5887 32.1585 20.1531 32.1585 20.1531C31.9238 20.2473 27.4538 25.2859 24.3123 24.0778C21.0255 22.8087 22.7326 18.5898 23.3572 17.3207C23.8876 16.2515 24.4743 15.2105 24.4743 15.2105C24.4743 15.2105 23.9703 15.3526 23.6481 15.4253C23.3258 15.4979 22.8597 15.5905 22.8597 15.5905C22.8597 15.5905 21.3048 18.1172 20.3545 19.3781C19.4043 20.6389 15.3656 24.9718 12.9859 24.1093C10.6063 23.2467 11.1963 19.9168 12.5331 17.2727C14.7013 12.9845 19.8456 7.71457 22.944 8.5144C26.0739 9.31253 23.4827 14.3891 23.4827 14.3891C23.4827 14.3891 24.1057 14.4701 25.598 13.4521C27.7463 11.9864 30.582 8.04342 33.6524 8.50613C35.1001 8.72426 36.4485 10.2033 34.6042 13.0125C34.016 13.9148 33.0294 14.7213 32.2742 13.9231C31.8032 13.4274 32.2147 12.5234 32.7088 11.9053C32.9011 11.6535 33.1525 11.4526 33.4406 11.3207C33.7288 11.1887 34.0449 11.1296 34.3613 11.1485C34.3613 11.1485 34.8687 9.99174 33.578 10.0083C32.5336 10.0281 29.8896 12.4623 28.3973 14.9213C27.0291 17.1786 24.9551 21.024 27.0374 21.8618C28.946 22.6319 32.5783 18.3205 34.2606 16.0615C35.9428 13.8025 39.7766 8.68297 42.9924 8.47806C44.0996 8.40529 44.759 9.41498 44.759 9.41498L45.1308 8.82671H48.3466C48.3466 8.82671 42.2901 18.9336 41.8175 19.6987C41.4457 20.2969 40.9516 21.6421 42.3132 20.8885C43.675 20.135 46.5288 16.4697 46.5288 16.4697ZM44.7789 32.6644C42.411 31.0253 39.5757 30.1979 36.698 30.3062C35.9191 30.3275 35.1562 30.532 34.4711 30.9032C33.7861 31.2745 33.1981 31.802 32.7551 32.4429C31.5289 30.3029 29.1046 28.9892 25.3568 29.0189C19.3002 29.0883 13.2933 31.8811 8.53404 31.8778C3.97312 31.8778 0.646592 29.0107 0.753993 23.9192C0.953951 14.9841 8.50427 6.93785 14.1394 3.31718C17.3883 1.23673 20.105 0.618683 21.8815 0.818642C23.1771 0.962382 24.7354 2.4596 23.7521 4.66571C22.3078 7.88979 20.3133 7.62534 20.3876 6.0835C20.4289 5.08047 21.0965 4.4492 21.5989 4.10056C21.9178 3.88072 22.4813 3.81793 22.7755 3.81128C23.0614 3.57003 23.2713 1.80512 20.9578 2.38521C18.6441 2.96521 15.8349 5.24571 13.1677 8.1922C10.5005 11.1386 6.34771 16.7076 5.32156 22.5559C4.84231 25.2677 5.15633 30.2137 11.5862 30.1575C17.0396 30.1128 25.0775 26.5219 32.4642 26.5963C35.3314 26.6244 37.8267 27.3978 39.7717 28.5975C41.6821 29.7741 43.9725 31.4928 44.7854 32.6661" fill="#111111"/>
</g>
</svg>
