<svg width="101" height="50" viewBox="0 0 101 50" fill="none" xmlns="http://www.w3.org/2000/svg">
<path fill-rule="evenodd" clip-rule="evenodd" d="M67.8606 0.602051H19.2121V49.071H67.8606V0.602051ZM24.6838 18.0212C24.6802 18.7926 24.0549 19.4162 23.2846 19.4162C22.5145 19.4165 21.8888 18.7933 21.8849 18.0219C21.8849 17.2539 22.5141 16.6276 23.2846 16.6276C24.0544 16.6276 24.6834 17.2536 24.6838 18.0212ZM24.5423 27.6882H22.0577V20.7008H24.5423V27.6882ZM28.6936 21.5778H28.6776V20.7162H26.193V27.703H28.6776V24.3663C28.6776 23.5989 28.6776 22.4079 29.7778 22.4079C30.8786 22.4079 30.8786 23.5829 30.8786 24.3663V27.703H33.3632V24.3663C33.3632 23.5362 33.4106 22.4553 34.5581 22.4553C35.5825 22.4553 35.5811 23.5809 35.5803 24.3055L35.5802 24.3663V27.703H38.0642V23.2541C38.0642 21.6405 37.451 20.4815 35.675 20.4815C34.7149 20.4815 33.7722 20.9354 33.3005 21.8131C32.7974 20.8887 31.9168 20.4815 30.9106 20.4815C29.9986 20.4815 29.2753 20.7944 28.6936 21.5778ZM44.8895 27.6876H47.358V20.7008H44.8734V21.3739C44.3551 20.763 43.5057 20.4655 42.7038 20.4655C40.6282 20.4655 39.1971 22.1733 39.1971 24.1785C39.1971 26.1837 40.6595 27.9068 42.7351 27.9068C43.5524 27.9068 44.4171 27.5933 44.8575 26.9042H44.8895V27.6876ZM43.3636 25.776C42.3415 25.776 41.7597 25.1029 41.7597 24.2099C41.7597 23.3483 42.3569 22.6271 43.3636 22.6271C44.3851 22.6271 44.9669 23.3483 44.9669 24.2099C44.9669 25.1029 44.3698 25.776 43.3636 25.776ZM56.7284 27.0138C56.7284 29.9902 55.2505 31.1806 52.6716 31.1806C51.0525 31.1806 48.8982 30.3505 48.6779 28.5178H51.4609C51.5239 28.7677 51.7128 28.9408 51.9323 29.0498C52.1526 29.1601 52.4045 29.2069 52.6402 29.2069C53.9768 29.2069 54.244 28.3299 54.244 27.2017V26.8728C53.5999 27.5151 52.9388 27.8279 52.0114 27.8279C49.9678 27.8279 48.5519 26.2773 48.5519 24.2567C48.5519 22.2201 49.9992 20.4655 52.1526 20.4655C52.9703 20.4655 53.725 20.7322 54.2125 21.4367H54.244V20.7008H56.7284V27.0138ZM51.1146 24.1471C51.1146 25.04 51.6966 25.7138 52.7193 25.7138C53.725 25.7138 54.3231 25.04 54.3231 24.1471C54.3231 23.2856 53.7403 22.565 52.7193 22.565C51.7128 22.565 51.1146 23.3009 51.1146 24.1471ZM60.2508 24.617H65.4859V24.3663C65.4859 21.9855 64.0872 20.4815 61.6496 20.4815C59.3702 20.4815 57.7664 21.8752 57.7664 24.2099C57.7664 26.6222 59.4953 27.9222 61.8232 27.9222C62.6408 27.9222 63.427 27.7344 64.071 27.3427C64.716 26.9356 65.2035 26.3401 65.3924 25.5253H63.0024C62.7191 25.9952 62.3422 26.1683 61.807 26.1683C60.7851 26.1683 60.2508 25.6196 60.2508 24.617ZM61.7602 22.0951C62.4357 22.0951 63.0492 22.5182 63.1751 23.1913H60.2814C60.4388 22.4707 61.037 22.0951 61.7602 22.0951ZM4.8563 22.3765V16.4706H4.2432V27.7036H4.8563V24.601C4.8563 23.3169 5.10852 21.8445 6.69578 21.8445C8.08011 21.8445 8.22097 22.7682 8.22097 23.8964V27.703H8.8347V23.8964C8.8347 22.2669 8.37838 21.2643 6.7591 21.2643C5.94119 21.2643 5.24929 21.6874 4.88832 22.3765H4.8563ZM1.44432 27.6876H2.05751V21.9694H3.15831V21.3899H2.05751V19.1495H1.44432V21.3899H0.753052V21.9694H1.44432V27.6876ZM10.9417 24.6016C10.8944 26.199 12.0106 27.2645 13.4731 27.2645C14.4631 27.2645 15.2498 26.6849 15.7054 25.8388L16.2245 26.1362C15.6427 27.2331 14.6366 27.8439 13.3943 27.8439C11.5229 27.8439 10.3286 26.3247 10.3286 24.5541C10.3286 22.7996 11.5389 21.2803 13.3943 21.2803C15.3124 21.2803 16.4447 22.7996 16.4286 24.617H10.9423L10.9417 24.6016ZM13.3943 21.8291C14.6993 21.8291 15.6427 22.8624 15.7995 24.0214H10.9257C11.0358 22.831 12.1047 21.8291 13.3943 21.8291ZM76.7126 27.3895C76.7126 28.3613 76.6811 29.2229 76.0838 30.053C75.5019 30.8518 74.5583 31.2588 73.5688 31.2588C71.9174 31.2588 70.5492 30.2876 70.4548 28.5645H71.0682C71.1312 29.8646 72.2475 30.6954 73.5212 30.6954C74.3073 30.6954 75.0773 30.4287 75.5495 29.7549C76.0371 29.0344 76.1153 28.2203 76.1153 27.3741V26.5908H76.0838C75.5181 27.3427 74.5745 27.8126 73.6156 27.8126C71.7761 27.8126 70.5492 26.2773 70.5492 24.5227C70.5492 22.706 71.8544 21.2489 73.6939 21.2489C74.7157 21.2489 75.4857 21.6874 76.0686 22.4707H76.1V21.3746H76.7126V27.3895ZM71.1627 24.5073C71.1627 25.9484 72.1215 27.2639 73.6462 27.2639C75.2662 27.2639 76.1315 25.9644 76.1315 24.4446C76.1315 22.9881 75.1403 21.8445 73.6003 21.8445C72.153 21.8285 71.1627 23.1445 71.1627 24.5073ZM78.9146 22.2201H78.8831V21.4053H78.2696V27.7036H78.8831V24.492C78.8831 24.4464 78.8822 24.3989 78.8822 24.3497C78.8786 23.4018 78.8723 21.8445 80.1874 21.8445C80.361 21.8445 80.4707 21.8912 80.6281 21.9694L80.9582 21.4213C80.7378 21.3117 80.5337 21.2649 80.2827 21.2649C79.6063 21.2649 79.1655 21.6405 78.9146 22.2201ZM87.5156 24.5541C87.5156 26.4183 86.053 27.8439 84.1973 27.8439C82.3731 27.8439 80.9106 26.3561 80.9106 24.5701C80.907 23.6961 81.2515 22.8566 81.8694 22.2386C82.4865 21.6208 83.3248 21.2757 84.1973 21.2803C86.053 21.2643 87.5156 22.6746 87.5156 24.5541ZM84.1506 27.2485C82.6565 27.2485 81.5249 25.9798 81.5249 24.5541C81.5249 23.0976 82.6412 21.8285 84.1506 21.8285C85.7067 21.8285 86.9021 23.0035 86.9021 24.5541C86.9021 26.0741 85.6914 27.2485 84.1506 27.2485ZM92.8919 21.406V25.1811V25.2536C92.8928 25.8715 92.8937 26.4857 92.515 26.9978C92.0752 27.578 91.3358 27.8439 90.6288 27.8439C89.9208 27.8439 89.1823 27.578 88.7416 26.9978C88.3629 26.4858 88.3638 25.8715 88.3638 25.2536V25.1811V21.4053H88.9773V24.9619C88.9773 26.1676 89.1185 27.2645 90.6288 27.2645C92.1381 27.2645 92.2793 26.1683 92.2793 24.9619V21.4053L92.8919 21.406ZM95.0003 22.5336H94.9679H94.9526V21.3899H94.3392V31.3685H94.9518V26.6068H94.9841C95.5022 27.4055 96.4458 27.8286 97.4209 27.8286C99.3233 27.8286 100.518 26.4343 100.518 24.6016C100.518 22.7682 99.3395 21.2643 97.4047 21.2643C96.4773 21.2643 95.4708 21.7348 95.0003 22.5336ZM94.9365 24.6798C94.9365 26.1523 95.9277 27.2485 97.4515 27.2485C98.9302 27.2485 99.9215 26.0112 99.9215 24.601C99.9215 23.1599 98.9779 21.8285 97.4362 21.8285C95.8009 21.8285 94.9365 23.1759 94.9365 24.6798Z" fill="#111111"/>
</svg>
