<svg width="142" height="34" viewBox="0 0 142 34" fill="none" xmlns="http://www.w3.org/2000/svg">
<path d="M50.3162 27.9471L49.9604 27.3577H47.7486L47.3927 27.9471H46.7122L48.4755 25.1703H49.2335L50.9968 27.9471H50.3162ZM48.7694 25.6822L47.9805 26.9544H49.713L48.9241 25.6822H48.7694Z" fill="#111111"/>
<path d="M57.4621 27.9782C56.8278 27.9782 56.6423 27.8851 56.6423 27.2025V25.1703H57.23V27.2801C57.23 27.4507 57.2919 27.4817 57.493 27.4817H59.4729C59.674 27.4817 59.7358 27.4507 59.7358 27.2801V25.1703H60.3237V27.2025C60.3237 27.8696 60.138 27.9782 59.5038 27.9782H57.4621Z" fill="#111111"/>
<path d="M67.5944 27.9471V25.6201H65.9548V25.1703H69.7909V25.6201H68.1668V27.9471H67.5944Z" fill="#111111"/>
<path d="M76.2561 27.9781C75.6372 27.9781 75.4052 27.854 75.4052 27.2024V25.9148C75.4052 25.2788 75.6525 25.1392 76.2561 25.1392H78.4212C79.04 25.1392 79.2721 25.2633 79.2721 25.9148V27.2024C79.2721 27.854 79.04 27.9781 78.4212 27.9781H76.2561ZM78.7 25.8062C78.7 25.6356 78.638 25.6046 78.4374 25.6046H76.2561C76.0546 25.6046 76.0087 25.6356 76.0087 25.8062V27.2955C76.0087 27.4662 76.0708 27.4972 76.2561 27.4972H78.4527C78.6532 27.4972 78.7153 27.4662 78.7153 27.2955V25.8062H78.7Z" fill="#111111"/>
<path d="M89.0173 27.9472V26.3493C89.0173 26.1321 89.0173 25.9304 89.0325 25.8063H89.0173L87.5475 27.73H87.3928L85.9086 25.8063H85.8924C85.9086 25.9304 85.9086 26.1321 85.9086 26.3338V27.9316H85.3203V25.1548H86.0318L87.4701 27.0629H87.4863L88.9246 25.1548H89.6208V27.9316H89.0173V27.9472Z" fill="#111111"/>
<path d="M96.4876 27.9781C95.8688 27.9781 95.6367 27.854 95.6367 27.2024V25.9148C95.6367 25.2788 95.8841 25.1392 96.4876 25.1392H98.6527C99.2716 25.1392 99.5037 25.2633 99.5037 25.9148V27.2024C99.5037 27.854 99.2716 27.9781 98.6527 27.9781H96.4876ZM98.9154 25.8062C98.9154 25.6356 98.8542 25.6046 98.6527 25.6046H96.4562C96.2556 25.6046 96.2088 25.6356 96.2088 25.8062V27.2955C96.2088 27.4662 96.2709 27.4972 96.4562 27.4972H98.6527C98.8542 27.4972 98.9154 27.4662 98.9154 27.2955V25.8062Z" fill="#111111"/>
<path d="M109.048 27.3111C109.048 27.8231 108.769 27.9471 108.228 27.9471H105.537V25.1703H108.213C108.831 25.1703 109.017 25.3099 109.017 25.8219V26.0546C109.017 26.2563 108.971 26.4424 108.707 26.5044V26.5199C108.939 26.5665 109.033 26.7217 109.033 26.9853V27.3111H109.048ZM108.46 25.8374C108.46 25.6512 108.398 25.6201 108.197 25.6201H106.109V26.3182H108.213C108.383 26.3182 108.46 26.2873 108.46 26.1011V25.8374ZM108.46 26.9233C108.46 26.7371 108.398 26.7061 108.197 26.7061H106.109V27.4663H108.197C108.398 27.4663 108.46 27.4352 108.46 27.249V26.9233Z" fill="#111111"/>
<path d="M115.127 27.9471V25.1703H115.715V27.9471H115.127Z" fill="#111111"/>
<path d="M121.933 27.9471V25.1703H122.52V27.4663H125.243V27.9471H121.933Z" fill="#111111"/>
<path d="M131.044 27.9471V25.1703H131.631V27.9471H131.044Z" fill="#111111"/>
<path d="M130.007 10.4791C127.92 10.4791 126.172 10.7118 124.95 11.5806C123.805 12.4028 123.171 13.5818 123.171 14.885C123.171 17.4446 125.646 19.2752 128.693 19.2752H130.89C130.983 19.2752 131.06 19.2441 131.137 19.1976L131.849 18.7322C131.864 18.7167 131.879 18.6857 131.879 18.6702C131.879 18.6391 131.849 18.6236 131.833 18.6236C129.018 18.5926 126.744 17.2895 126.744 15.1796C126.744 13.0078 128.771 11.5961 131.911 11.5961H139.815C139.938 11.5961 140.047 11.5496 140.124 11.472L141.098 10.4947H130.007V10.4791Z" fill="#111111"/>
<path d="M105.492 10.6189L100.789 15.3349H102.692C102.816 15.3349 102.924 15.2884 103.001 15.2108L106.435 11.7668C106.558 11.6427 106.744 11.6427 106.868 11.7668L114.246 19.1667C114.324 19.2442 114.447 19.2908 114.556 19.2908H118.531L109.884 10.6189C109.807 10.5413 109.683 10.4948 109.574 10.4948H105.8C105.692 10.4792 105.569 10.5258 105.492 10.6189Z" fill="#111111"/>
<path d="M89.9923 10.5722L83.4493 15.521C83.3414 15.5985 83.1867 15.5985 83.0779 15.521L76.5196 10.5722C76.4422 10.5102 76.3496 10.4791 76.2569 10.4791H71.5085L81.8563 18.2823C81.9643 18.3599 82.119 18.3599 82.2278 18.2823L90.0544 12.3718C90.147 12.3097 90.2712 12.3718 90.2712 12.4803V19.2752H93.7981V10.4791H90.2559C90.1623 10.4791 90.0697 10.5102 89.9923 10.5722Z" fill="#111111"/>
<path d="M61.871 19.2752H65.3977V10.4791H61.871V19.2752Z" fill="#111111"/>
<path d="M44.8391 14.6515C44.6845 14.6515 44.6072 14.8376 44.7155 14.9462L48.9073 19.1503C48.9847 19.2279 49.1083 19.2744 49.2166 19.2744H53.192L49.8045 15.8925C49.7271 15.815 49.7735 15.6753 49.8818 15.6753L51.3048 15.5667C53.7488 15.303 54.8935 14.3101 54.8935 12.914C54.8935 11.2541 53.3311 10.4939 50.2066 10.4939H35.2953L36.3936 11.4712C36.4709 11.5488 36.5792 11.5953 36.703 11.5953H48.2576C50.5933 11.5953 51.3822 12.1538 51.3822 13.1157C51.3822 14.0154 50.284 14.5428 47.9637 14.5894C45.0712 14.6359 44.8391 14.6515 44.8391 14.6515Z" fill="#111111"/>
<path d="M26.9886 2.22592C22.8895 1.07798 18.4347 0.395344 14.0417 0.410905C9.64883 0.395344 5.19396 1.07798 1.09494 2.22592C0.816546 2.30354 0.615417 2.56728 0.615417 2.86195C0.615417 13.8454 4.71453 27.4349 13.6705 33.4231C13.8871 33.5783 14.181 33.5783 14.4129 33.4231C23.369 27.4349 27.4835 13.8454 27.468 2.86195C27.468 2.56728 27.267 2.30354 26.9886 2.22592ZM14.3202 30.1032C14.1655 30.2428 13.918 30.2428 13.7633 30.1032C8.30308 25.5889 5.1167 17.6151 3.91011 9.93607L2.51804 9.19137H3.8019H12.8197C16.1299 9.19137 16.5475 10.2773 16.5475 11.053C16.5475 11.8286 16.1299 12.9146 12.8197 12.9146H9.81892C9.71071 12.9146 9.63335 13.0077 9.63335 13.1007C9.63335 13.1473 9.64883 13.1938 9.69524 13.2404L19.7804 23.355L20.8632 24.4409L19.4402 23.96C18.0016 26.3335 16.3156 28.4434 14.3202 30.1032ZM21.2499 20.2834L15.2328 14.2487C15.14 14.1556 15.2019 14.016 15.3256 14.0005L16.5012 13.8764C18.9916 13.6127 20.4146 12.3561 20.4146 10.7892C20.4146 8.97424 18.4966 7.96581 15.2946 7.96581H3.63171C3.50794 6.95747 3.43067 5.9646 3.38426 4.98729C3.36879 4.66149 3.5853 4.38229 3.89473 4.30475C7.23583 3.52902 10.6697 3.12568 13.949 3.12568H14.1345C17.4138 3.12568 20.8477 3.52902 24.1888 4.30475C24.4981 4.38229 24.7147 4.66149 24.6993 4.98729C24.4518 9.96701 23.3226 15.4587 21.2499 20.2834Z" fill="#111111"/>
</svg>
