<svg width="66" height="29" viewBox="0 0 66 29" fill="none" xmlns="http://www.w3.org/2000/svg">
<path fill-rule="evenodd" clip-rule="evenodd" d="M64.4444 5.36253C63.7365 4.77687 60.6359 2.21203 56.9426 3.08985C52.16 4.23159 49.2312 10.1701 48.1815 13.4053C43.4213 28.1725 51.6508 26.4157 52.3812 26.2598C52.3965 26.2566 52.4091 26.254 52.4172 26.2522L55.5196 16.4344C55.6473 15.9532 55.7634 14.7727 54.1856 14.1211H64.9886C63.6484 14.6142 62.8883 15.3884 62.5537 16.5749L59.4423 26.3928C59.4297 26.3991 59.4117 26.4075 59.391 26.4178C58.532 26.84 51.2173 30.4329 44.5718 27.1742C38.215 24.0526 39.4455 12.4146 44.4539 6.7331C52.356 -2.22754 63.4433 1.15036 65.5553 1.79359C65.621 1.81356 65.6777 1.83082 65.7253 1.84504L64.5749 5.46741C64.5506 5.45014 64.5065 5.41398 64.4444 5.36253ZM28.3482 10.5365C31.4233 3.00054 25.6691 0.957772 21.9135 0.959211H9.49406C10.5302 1.66604 10.3585 2.59855 10.1567 3.17387L2.9207 26.1255C2.63007 27.0341 1.55031 27.9875 0.969055 28.1384L11.0256 28.1354C10.4729 28.0353 9.67927 27.2567 9.9654 26.1898L12.5933 17.8887C12.5933 17.8887 24.6873 19.5086 28.3482 10.5365ZM18.5778 3.06179C19.888 3.06179 23.5338 3.23513 21.1845 10.0763C18.7178 17.2581 13.2574 15.7802 13.2574 15.7802L17.2812 3.06179H18.5778ZM36.3863 28.1389L43.1461 28.1359C40.9828 27.447 37.7805 25.4177 36.5096 23.9711C37.5395 22.8534 38.8141 21.4517 39.0462 18.5975H35.5372C35.5372 18.5975 36.2118 18.9801 36.2118 19.7959C36.2118 20.5536 35.9087 21.5936 35.3159 22.3333C34.2905 20.8211 33.1908 19.0965 32.8068 16.5697C33.0987 16.4243 33.4162 16.2768 33.75 16.1216C34.9849 15.5477 36.443 14.8702 37.6546 13.8186C39.1109 12.5498 39.4482 11.3558 39.4707 10.5758V10.4772C39.4707 9.66421 39.1496 8.89613 38.5577 8.31334C37.5431 7.31364 35.9357 6.90571 34.2581 7.21802C32.9062 7.47051 31.7542 8.18337 31.1774 8.71686C29.1309 10.6117 28.8688 13.7468 28.8688 15.162C28.8688 15.5072 28.8839 15.7687 28.8975 15.9211L28.5707 16.0466C28.4221 16.1009 28.2485 16.1603 28.0553 16.2265C26.3118 16.8236 22.9556 17.9728 21.6705 20.8973C21.4883 21.3067 21.2307 22.1974 21.2307 23.236C21.2307 24.1281 21.4205 25.1233 22.0033 26.0319C23.0078 27.5875 24.7155 28.5738 27.4397 28.5274C30.4064 28.4781 33.3248 26.4682 33.8489 26.1006L33.9404 26.1847C34.5082 26.7066 35.7297 27.8294 36.3863 28.1389ZM36.3845 9.99001C36.0337 12.1792 33.1818 14.3834 32.483 14.6838C32.3595 13.4539 32.4138 11.5157 33.4558 9.92875C34.143 8.87976 35.0479 8.41651 35.7837 8.67053C36.3701 8.86923 36.4403 9.41172 36.3845 9.99001ZM32.4138 24.6077C32.0147 24.8558 30.4485 25.6433 28.9712 25.7838C27.6084 25.9094 25.3405 25.3848 25.3465 22.6726C25.3479 20.3563 27.8885 18.6633 29.2589 18.0744C29.8296 20.3205 31.078 22.8519 32.4138 24.6077Z" fill="#111111"/>
</svg>
