<svg width="92" height="26" viewBox="0 0 92 26" fill="none" xmlns="http://www.w3.org/2000/svg">
<path fill-rule="evenodd" clip-rule="evenodd" d="M83.2029 0.0257568L83.4476 0.0365518L83.695 0.0687547L83.9288 0.118945L84.1483 0.20503L84.3597 0.305413L84.5702 0.438088L84.769 0.583267L84.9525 0.751745L85.1252 0.948017L85.2673 1.14699L85.3932 1.35135L85.503 1.57182L85.5803 1.80398L85.6415 2.03704L85.6793 2.27721L85.6937 2.52196L85.6793 2.77472L85.6415 3.02028L85.5803 3.26495L85.503 3.48011L85.4076 3.70148L85.2673 3.91025L85.1252 4.10571L84.9525 4.29658L84.769 4.47046L84.5702 4.61654L84.3597 4.75101L84.1483 4.846L83.9288 4.93388L83.695 4.99567L83.4476 5.03246H83.2029H82.952L82.71 4.99567L82.4752 4.93388L82.2495 4.846L82.0318 4.75101L81.8303 4.61654L81.6351 4.47046L81.448 4.29658L81.2744 4.10571L81.1314 3.91025L81.0091 3.70148L80.9056 3.48011L80.8175 3.26495L80.7608 3.02028L80.7365 2.77472L80.723 2.52196L80.7365 2.27721L80.7608 2.03704L80.8175 1.80398L80.8975 1.57182L81.0091 1.36664L81.1314 1.15598L81.2744 0.948017L81.4399 0.767845L81.6351 0.59667L81.8303 0.438088L82.0318 0.317018L82.2495 0.20503L82.4752 0.13244L82.71 0.0687547L82.952 0.0365518L83.2029 0.0257568ZM36.7776 21.574L37.1984 21.5525L37.6401 21.4808L38.0728 21.3715L38.2841 21.2979L38.4782 21.2155L38.6632 21.1026L38.8356 20.9816L38.9888 20.8337L39.1212 20.675L39.2165 20.4806L39.2918 20.2708L39.3398 20.0449V19.7761L39.3072 19.5215L39.2165 19.302L39.095 19.0904L38.9253 18.9004L38.7113 18.7265L38.4546 18.5679L38.1734 18.437L37.8641 18.2954L37.1603 18.057L36.3858 17.8231L35.5449 17.5936L34.6824 17.3257L33.8144 17.0092L33.3981 16.8254L32.979 16.6301L32.5845 16.4141L32.1927 16.1685L31.8335 15.8853L31.4888 15.5948L31.1678 15.2543L30.8739 14.8868L30.6145 14.4826L30.3922 14.0488L30.2054 13.563L30.0721 13.0359L29.9723 12.465L29.9197 11.8403V11.4657L29.9351 11.1116L29.9723 10.771L30.0349 10.4278L30.1074 10.0997L30.1945 9.78246L30.3034 9.4831L30.4286 9.18636L30.5628 8.8969L30.7206 8.62534L30.8848 8.35558L31.0698 8.11352L31.2657 7.86976L31.4752 7.6367L31.6993 7.43503L31.9305 7.22266L32.1809 7.0272L32.4266 6.84801L32.9681 6.51637L33.535 6.23671L34.1282 5.99556L34.755 5.81098L35.3971 5.6667L36.0529 5.56803L36.7086 5.51963H37.2328L37.7526 5.53043L38.2423 5.58062L38.7303 5.64071L39.2038 5.73839L39.6636 5.86117L40.1063 6.00815L40.5398 6.17663L40.9579 6.38549L41.3642 6.61675L41.7742 6.87392L42.1543 7.16437L42.537 7.49332L42.9044 7.84466L43.2635 8.222L43.6054 8.65223L40.6514 11.0391L40.1969 10.5855L39.7761 10.1956L39.3553 9.86845L39.1421 9.72237L38.9344 9.60319L38.7113 9.49111L38.4782 9.39162L38.2351 9.32083L37.9775 9.25904L37.7036 9.21415L37.407 9.18636L37.0986 9.17385L36.7539 9.18636L36.4338 9.21415L36.1 9.29393L35.7663 9.42931L35.4605 9.61038L35.3128 9.70807L35.1786 9.82905L35.0633 9.95363L34.9645 10.0997L34.8774 10.2467L34.8157 10.4036L34.793 10.5855L34.7803 10.771L34.8157 11.014L34.9028 11.2434L35.0398 11.4657L35.213 11.6459L35.4207 11.8197L35.6801 11.9756L35.9649 12.1092L36.2696 12.2464L36.9735 12.4758L37.7671 12.6954L38.6033 12.9168L39.4786 13.174L40.3402 13.4734L40.7756 13.6427L41.1938 13.8408L41.5965 14.0596L41.9937 14.2934L42.3638 14.5552L42.7084 14.8662L43.0314 15.1951L43.3252 15.559L43.5837 15.9615L43.8077 16.3988L43.9883 16.8873L44.1415 17.4242L44.2231 18.0095L44.2721 18.6325L44.2866 19.0214L44.2721 19.3879L44.2404 19.7474L44.1896 20.1041L44.1152 20.4429L44.0427 20.7763L43.941 21.0883L43.8186 21.393L43.6962 21.7004L43.5483 21.9926L43.3877 22.2597L43.2145 22.5286L43.0314 22.7813L42.8327 23.027L42.6241 23.2572L42.4028 23.4814L42.166 23.6884L41.9193 23.8927L41.66 24.0711L41.4024 24.245L41.1194 24.4054L40.8364 24.5479L40.5488 24.6985L40.2405 24.8204L39.6246 25.0275L38.9725 25.1798L38.3094 25.2963L37.6157 25.3412L36.9735 25.3528L36.3558 25.3313L35.7408 25.2963L35.1395 25.2363L34.5454 25.1368L33.9676 25.0033L33.3981 24.841L32.8584 24.6367L32.316 24.4054L31.8099 24.1357L31.3047 23.8219L30.8222 23.4554L30.3678 23.0503L29.9351 22.6119L29.5188 22.1118L29.1197 21.5669L32.2888 19.1048L32.7604 19.7241L33.2266 20.2475L33.4597 20.4806L33.6955 20.6885L33.9287 20.8722L34.189 21.0291L34.4511 21.1743L34.7322 21.2979L35.0125 21.393L35.3236 21.4665L35.6556 21.5283L36.002 21.5669L36.3858 21.574H36.7776ZM76.1482 20.8476H74.8664V24.9024H76.0879L76.6762 24.8907L77.098 24.8531L77.3319 24.7957L77.5388 24.7097L77.743 24.5995L77.8851 24.4668L78.0209 24.3082L78.1118 24.1244L78.1729 23.9147L78.1954 23.7121L78.1783 23.5167L78.1343 23.3555L78.0731 23.1977L77.9724 23.065L77.859 22.9548L77.7142 22.8597L77.5388 22.7809L77.3454 22.7218L77.4821 22.659L77.6144 22.5882L77.7142 22.5031L77.8014 22.417L77.859 22.3103L77.9112 22.1902L77.9355 22.0433L77.9481 21.8927L77.922 21.6506L77.8356 21.4338L77.7025 21.233L77.6144 21.1523L77.5307 21.0878L77.295 20.9712L77.0117 20.8924L76.6438 20.862L76.1482 20.8476ZM75.926 24.1127H76.3065L76.6762 24.0859L76.812 24.0626L76.928 24.0124L76.9982 23.9533L77.0468 23.8699L77.0719 23.7722L77.0854 23.6503L77.0719 23.5275L77.0468 23.4173L76.9838 23.3313L76.9136 23.2721L76.8003 23.2362L76.6645 23.1977L76.2588 23.1887H75.926V24.1127ZM75.926 22.4313H76.2327L76.5412 22.4071L76.6519 22.3829L76.7391 22.3336L76.8003 22.2816L76.8507 22.2117L76.8768 22.1266L76.8867 22.0289L76.8768 21.9196L76.8507 21.8317L76.812 21.7591L76.7508 21.7125L76.6645 21.6766L76.5412 21.6506L76.2327 21.639H75.926V22.4313ZM79.8982 20.8476H80.9461L82.4806 24.9033H81.3536L81.0819 24.1002H79.7606L79.4889 24.9033H78.3654L79.8982 20.8476ZM80.8085 23.2909L80.4271 21.9196L80.0331 23.2909H80.8085ZM83.0653 20.8477H84.1888L85.7036 23.3547V20.8477H86.7506V24.9025H85.6937L84.115 22.3606V24.9025H83.0653V20.8477ZM88.9355 20.8477H87.8507V24.9025H88.9355V23.0409L90.3387 24.9025H91.7095L89.8961 22.7532L91.6133 20.8477H90.3387L88.9355 22.5031V20.8477ZM12.5985 20.6879H4.92621V17.4469H11.7223V13.2173H4.92621V9.94311H12.5604V5.72517H2.5008L2.25505 5.73776L2.0183 5.77536L1.78524 5.83545L1.56118 5.90984L1.3417 6.01913L1.14579 6.1366L0.958963 6.27369L0.787517 6.43416L0.625158 6.60443L0.490952 6.7864L0.37123 6.98357L0.266887 7.18434L0.181615 7.4075L0.11901 7.63607L0.0836609 7.88073L0.0727768 8.12818V22.5029L0.0836609 22.753L0.11901 22.9761L0.181615 23.21L0.266887 23.4288L0.37123 23.651L0.490952 23.8437L0.625158 24.0275L0.787517 24.1987L0.958963 24.3573L1.14579 24.4908L1.3417 24.6101L1.56118 24.7096L1.78524 24.7956L2.0183 24.8404L2.25505 24.8789L2.5008 24.8905L2.80923 24.8789H12.5985V20.6879ZM43.7923 10.0402V5.73803H56.6263V10.0402H52.8178L52.8322 24.8792H47.357V10.0402H43.7923ZM77.7025 19.0815H78.4014H80.5035H83.6572H86.765H88.7241L89.0083 19.0689L89.2323 19.0286L89.3537 18.9945L89.6506 18.8995L89.9708 18.7498L90.1192 18.6647L90.1516 18.6522L90.2919 18.5554L90.4394 18.4379L90.6202 18.2506L90.783 18.0686L90.8937 17.9136L90.9836 17.7773L91.0439 17.6635L91.1662 17.3615L91.2544 17.1069L91.3029 16.9384L91.329 16.752L91.3407 13.7458V10.7934H78.8602V10.2342V9.88284H85.1765H91.3407V8.65313V8.48007L91.3146 8.07763L91.2544 7.70119L91.2175 7.53991L91.0439 7.18497L90.9548 7.04159L90.8721 6.9206L90.7686 6.79863L90.5123 6.55577L90.4511 6.50738L90.2271 6.3586L89.9942 6.21432L89.9114 6.16233L89.7837 6.10404L89.4023 5.94627L89.1064 5.84858L88.859 5.78589L88.6161 5.7491H86.4331H82.8063H79.2775H77.43L77.2447 5.77599L76.8264 5.84858L76.4432 5.96957L76.2849 6.04126L76.0888 6.12554L75.9026 6.23671L75.6049 6.48408L75.5446 6.53157L75.3944 6.71444L75.2109 6.969L75.0984 7.16437L74.9896 7.42073L74.9617 7.47982L74.9015 7.6528L74.8664 7.90646L74.8295 8.35549V8.44427L74.843 14.2934H87.3559V15.1422H81.0927H74.843L74.852 15.8638L74.8664 16.6669L74.8889 17.0711L74.9491 17.2638V17.3023L75.0391 17.5066L75.1371 17.7254L75.2622 17.9468L75.3944 18.1304L75.505 18.2506L75.7776 18.4809L76.0474 18.6647L76.1716 18.7435L76.4171 18.8502L76.7014 18.9452L77.0459 19.0214L77.394 19.0689L77.7025 19.0815ZM69.9551 20.6879H62.2725V17.4585H69.07V13.2316H62.2725V9.953H69.9452V5.73776H59.8636L59.6145 5.74847L59.3662 5.78526L59.1332 5.83545L58.9111 5.92054L58.7015 6.01913L58.5018 6.1366L58.3048 6.28628L58.1456 6.43416L57.9855 6.60443L57.8496 6.7864L57.73 6.99167L57.6158 7.20134L57.5402 7.4201L57.4799 7.65307L57.4476 7.88073L57.4296 8.12818V22.5029L57.4476 22.753L57.4799 22.9931L57.5402 23.2217L57.6158 23.4404L57.73 23.651L57.8496 23.8437L57.9855 24.0391L58.1456 24.2103L58.3048 24.3573L58.5018 24.5007L58.7015 24.6101L58.9111 24.7221L59.1332 24.7956L59.3662 24.8529L59.6145 24.8905L59.8636 24.9031L60.1685 24.8789H69.9551V20.6879ZM24.2871 24.8785H29.7863L25.761 16.3116L26.0739 16.1549L26.405 15.9622L26.717 15.7416L27.0126 15.497L27.2829 15.2326L27.5315 14.9467L27.7655 14.6554L27.9768 14.3381L28.1727 13.9966L28.3287 13.6587L28.4684 13.2795L28.59 12.9031L28.6734 12.5132L28.7478 12.0982L28.7868 11.6851L28.8004 11.2423V10.9071L28.775 10.5504L28.726 10.2214L28.6734 9.88977L28.6027 9.59041L28.5174 9.29376L28.4212 9.015L28.306 8.74434L28.1818 8.49068L28.0403 8.24692L27.8888 8.00486L27.7274 7.78349L27.5541 7.57643L27.3719 7.38466L27.1705 7.20089L26.9746 7.02792L26.531 6.71516L26.0639 6.4543L25.5678 6.22484L25.0417 6.05546L24.4848 5.90939L23.9162 5.8108L23.3365 5.76241L22.7361 5.73821H14.0262V24.8901H18.8986L18.9123 17.4375H21.0818L24.2871 24.8785ZM18.8986 9.30986H21.1317L21.5988 9.32875L22.0695 9.39054L22.3035 9.44433L22.5257 9.50352L22.7361 9.59041L22.942 9.68369L23.1289 9.80917L23.303 9.95345L23.4445 10.1103L23.5706 10.3066L23.683 10.528L23.7592 10.7708L23.8064 11.0263L23.8209 11.331L23.8064 11.6752L23.7492 11.962L23.6577 12.2211L23.5488 12.455L23.3974 12.6459L23.2268 12.8081L23.04 12.948L22.8214 13.0609L22.5973 13.1496L22.3634 13.2177L22.1184 13.2661L21.8563 13.3154L21.3294 13.3522L20.8115 13.3674L19.8628 13.3522L18.8986 13.3674V9.30986Z" fill="#111111"/>
</svg>
