<svg width="111" height="20" viewBox="0 0 111 20" fill="none" xmlns="http://www.w3.org/2000/svg">
<path fill-rule="evenodd" clip-rule="evenodd" d="M9.96187 1.01959H10.4295C13.4513 1.01959 14.8597 2.59389 15.4483 6.79222L16.384 6.75192L16.2592 0.0909424H0.882491L0.730926 6.75192L1.63133 6.79222C1.7873 5.21791 1.97439 4.37013 2.38025 3.52227C3.09787 1.94778 4.59536 1.01959 6.43601 1.01959H7.09111V15.5118C7.09111 17.0458 6.99756 17.5303 6.62346 17.8937C6.31133 18.1762 5.68726 18.2973 4.96946 18.2973H4.25193V19.266H12.8008V18.2973H12.0788C11.3657 18.2973 10.7372 18.1759 10.4297 17.8937C10.0554 17.5303 9.96187 17.0456 9.96187 15.5118V1.01959ZM0.491211 8.842H4.43453V12.7609H0.491211V8.842ZM16.4978 8.842H12.5545V12.7609H16.4978V8.842ZM24.1984 8.842H28.1462V12.7609H24.1984V8.842ZM39.9739 8.842H36.0304V12.7609H39.9739V8.842ZM50.6371 19.2662L55.6193 2.33691V15.622C55.6193 17.0718 55.5348 17.5813 55.1966 17.934C54.943 18.2081 54.3552 18.3259 53.7035 18.3259H53.4501V19.2662H60.4919V18.3259H60.1258C59.4782 18.3259 58.8863 18.2084 58.6335 17.934C58.2944 17.5813 58.2108 17.0718 58.2108 15.622V4.29646C58.2108 2.84638 58.2944 2.29778 58.6335 1.94517C58.9151 1.71004 59.4782 1.55317 60.1258 1.55317H60.4919V0.651692H55.0277L50.9149 14.3285L46.8908 0.651692H41.4543V1.55317H41.9611C43.4543 1.55317 43.7358 1.86674 43.7358 3.74786V14.5245C43.7358 16.2488 43.6514 16.9542 43.3977 17.4638C43.1162 17.9733 42.5205 18.3259 41.9048 18.3259H41.4541V19.2662H47.2566V18.3259H46.8906C46.1584 18.3259 45.5666 18.0514 45.2246 17.5028C44.8907 16.9542 44.8062 16.4448 44.8062 14.5245V2.33708L49.7597 19.2665L50.6371 19.2662ZM60.7734 12.8787C60.7734 8.68531 63.0555 6.02045 66.5482 6.02045C69.8962 6.02045 72.1782 8.80287 72.1782 12.8396C72.1782 16.9152 69.8962 19.6585 66.4601 19.6585C63.0555 19.6585 60.7734 16.9152 60.7734 12.8787ZM68.7979 8.60687C68.3185 7.54879 67.4459 6.92175 66.4358 6.92175C65.5057 6.92175 64.6008 7.58809 64.1538 8.60687C63.7031 9.58651 63.5016 10.9189 63.5016 12.8C63.5016 16.7969 64.4641 18.7565 66.4601 18.7565C68.4597 18.7565 69.4455 16.7972 69.4455 12.8394C69.4455 10.9191 69.2485 9.58651 68.7979 8.60687ZM76.8583 0.455692L72.8573 0.651692V1.51386H73.0507C74.2345 1.51386 74.4917 1.90577 74.4917 3.74759V16.4839C74.4917 18.1297 74.4351 18.561 74.2102 19.2662H75.1394C75.8401 18.1297 76.0128 17.934 76.2943 17.934C76.431 17.934 76.5678 17.973 76.7693 18.169C78.1536 19.2662 78.7446 19.5013 80.0129 19.5013C83.0505 19.5013 85.2479 16.6405 85.2479 12.5649C85.2479 8.72444 83.216 6.13801 80.1775 6.13801C78.6006 6.13801 77.4493 6.88262 76.8583 8.21496V0.455692ZM79.779 7.11766C81.5861 7.11766 82.5153 8.99887 82.5153 12.6825C82.5153 16.562 81.5582 18.5607 79.7268 18.5607C77.6984 18.5607 76.6325 16.5227 76.6325 12.8C76.6325 10.9189 76.8862 9.62591 77.4772 8.646C78.0088 7.70566 78.9137 7.11766 79.779 7.11766ZM86.3507 6.45158L90.4587 6.21645H90.4596V16.1312C90.4596 17.973 90.7169 18.3653 91.9042 18.3653H92.3468V19.2662H86.214V18.3653H86.6602C87.8394 18.3653 88.0931 17.9341 88.0931 16.1312V9.50835C88.0931 7.70566 87.8394 7.31366 86.6602 7.31366H86.3507V6.45158ZM87.5336 2.06247C87.5336 1.16099 88.2379 0.494819 89.1113 0.494819C89.9559 0.494819 90.6324 1.2003 90.6324 2.06247C90.6324 2.92455 89.9559 3.59072 89.0834 3.59072C88.2379 3.59072 87.5336 2.88551 87.5336 2.06247ZM97.5855 0.455692L93.4766 0.651692V1.51386H93.7833C94.9661 1.51386 95.2198 1.90577 95.2198 3.74759V16.131C95.2198 17.973 94.9661 18.365 93.7833 18.365H93.3362V19.266H99.4726V18.365H99.022C97.8346 18.365 97.5855 17.9728 97.5855 16.131V0.455692ZM105.449 6.02045C108.515 6.02045 110.543 8.60687 110.68 12.7609H102.97C102.999 16.8368 103.952 18.5607 106.178 18.5607C107.699 18.5607 108.684 17.7377 109.67 15.7L110.515 16.131C109.303 18.5607 107.839 19.6582 105.726 19.6582C102.459 19.6582 100.351 16.9541 100.351 12.7609C100.351 8.842 102.487 6.02045 105.449 6.02045ZM105.586 7.00018C104.003 7.00018 103.022 8.842 102.998 11.781H108.064C108.092 8.80287 107.162 7.00018 105.586 7.00018Z" fill="#111111"/>
</svg>
