<svg width="141" height="23" viewBox="0 0 141 23" fill="none" xmlns="http://www.w3.org/2000/svg">
<path fill-rule="evenodd" clip-rule="evenodd" d="M9.29794 3.152L10.9647 17.2731L12.4463 0.0963135H8.92779L9.29794 3.152ZM3.88061 16.1161C3.88061 20.0049 8.04772 21.6715 9.29794 22.1351C9.48305 22.2269 9.62266 22.2269 9.62266 22.2269H9.29794C7.63125 22.1351 0.408447 21.3013 0.408447 15.1898C0.408447 12.8842 1.40401 11.1758 2.32888 9.58865C3.13132 8.2116 3.88061 6.92586 3.88061 5.42036C3.88061 2.96689 3.27902 2.31907 2.90888 2.17946C3.69558 2.41163 6.61248 3.56856 6.61248 6.81009C6.61248 8.55467 6.02115 9.61779 5.3888 10.7549C4.66191 12.0619 3.88061 13.4666 3.88061 16.1161ZM15.1318 8.66117C15.1318 8.66117 21.706 16.9484 12.8165 22.1351C12.8165 22.1351 20.7798 21.1625 20.7798 16.0229C20.7798 10.8839 15.1318 8.66117 15.1318 8.66117ZM34.1611 20.8378C33.8827 20.699 33.6513 20.3288 33.605 19.1249L33.4661 12.7812H33.5125C33.6295 12.8788 34.0001 13.279 34.5107 13.8305C35.2148 14.5909 36.1851 15.6387 37.1242 16.5774C37.8248 17.2582 38.5771 18.0169 39.2879 18.7336C40.2213 19.6748 41.0832 20.5437 41.6616 21.0692L41.6655 21.073C41.8046 21.2114 41.9872 21.3931 42.1714 21.3931C42.2639 21.3931 42.3102 21.2551 42.3102 20.9312L42.4953 11.3012C42.5416 10.5137 42.6341 10.1898 43.0506 10.0972C43.2828 10.051 43.3753 10.051 43.5141 10.051C43.6992 10.051 43.8381 10.0047 43.8381 9.91211C43.8381 9.77331 43.653 9.72699 43.4216 9.72699C42.9638 9.72699 42.546 9.74714 42.2614 9.76081C42.1145 9.76792 42.003 9.77332 41.94 9.77332C41.8384 9.77332 41.6748 9.76711 41.4674 9.75928C41.1079 9.74561 40.6168 9.72699 40.0882 9.72699C39.9031 9.72699 39.7179 9.77331 39.7179 9.91211C39.7179 10.0047 39.7643 10.051 39.9956 10.051C40.1807 10.051 40.551 10.051 40.7831 10.0972C41.107 10.2353 41.2458 10.56 41.2922 11.4393L41.431 18.2927H41.3847C41.2925 18.2002 41.0013 17.8986 40.616 17.4996L40.6153 17.4989L40.6136 17.4971C39.8384 16.6943 38.6844 15.4993 38.005 14.8204C35.7823 12.5977 33.4677 10.1435 33.3281 9.95843L33.3237 9.95393C33.0485 9.67878 32.8654 9.49564 32.7265 9.49564C32.587 9.49564 32.5407 9.68076 32.5407 10.0047L32.4019 18.9405C32.3548 20.2825 32.3086 20.746 31.9384 20.8848C31.7069 20.9312 31.4293 20.9312 31.2442 20.9312C31.1046 20.9312 31.012 20.9781 31.012 21.07C31.012 21.1632 31.1046 21.2087 31.3368 21.2087C31.8904 21.2087 32.3985 21.1863 32.6995 21.1729C32.8259 21.1673 32.9161 21.1632 32.9571 21.1632C33.076 21.1632 33.2317 21.1693 33.4289 21.1771C33.771 21.1905 34.2388 21.2087 34.8553 21.2087C35.0404 21.2087 35.2262 21.1632 35.2262 21.07C35.2262 20.9774 35.0873 20.9312 34.9485 20.9312C34.7164 20.9312 34.4388 20.9312 34.1611 20.8378ZM66.6636 11.1616C66.3396 10.4211 66.1082 10.2353 65.5521 10.0972C65.3208 10.051 65.0431 10.051 64.9498 10.051C64.811 10.051 64.7647 10.0047 64.7647 9.91211C64.7647 9.77331 64.9498 9.72699 65.1357 9.72699C65.5946 9.72699 66.0533 9.74102 66.4657 9.75362C66.8025 9.76396 67.1084 9.77332 67.3584 9.77332C67.5369 9.77332 67.7665 9.76477 68.0289 9.75505C68.3788 9.7421 68.7872 9.72699 69.2102 9.72699C69.4424 9.72699 69.5812 9.77331 69.5812 9.91211C69.5812 10.0047 69.4886 10.051 69.3498 10.051C69.1177 10.051 68.8401 10.051 68.7475 10.0972C68.6548 10.1979 68.6049 10.3306 68.6086 10.4675C68.6086 10.6526 68.7475 11.069 68.9325 11.5781L71.5257 18.4778H71.5716C72.0438 17.2609 73.2321 14.3185 73.984 12.4574L73.9849 12.4554L73.9858 12.452L73.9867 12.4509L73.9876 12.4472L73.9885 12.4451L73.9894 12.4443C74.2647 11.7614 74.4815 11.2257 74.5804 10.9772C74.674 10.7451 74.7189 10.56 74.7189 10.3749C74.7189 10.2353 74.674 10.1427 74.5345 10.0972C74.3492 10.051 74.1172 10.051 73.8869 10.051C73.7942 10.051 73.6548 10.0047 73.6548 9.91211C73.6548 9.77331 73.7942 9.72699 74.0722 9.72699C74.5822 9.72699 75.014 9.74642 75.318 9.76009C75.4826 9.76756 75.6103 9.77332 75.6922 9.77332C75.81 9.77332 75.9953 9.76495 76.2076 9.75533C76.4954 9.74237 76.8346 9.72699 77.1278 9.72699C77.3131 9.72699 77.4516 9.77331 77.4516 9.91211C77.4516 10.0047 77.3599 10.051 77.1746 10.051C77.0342 10.051 76.7113 10.051 76.4334 10.1898C76.2481 10.3286 76.0169 10.607 75.6004 11.5333C75.3036 12.2408 75.0518 12.8022 74.7783 13.4117L74.7774 13.4136V13.4146L74.7765 13.4154C74.4959 14.0406 74.1927 14.7168 73.7942 15.6533C73.2536 16.8349 72.8165 17.859 72.4711 18.6704C72.1661 19.386 71.9314 19.9363 71.7578 20.2833C71.6903 20.4257 71.631 20.5524 71.5788 20.6646C71.308 21.2463 71.2172 21.4409 71.0625 21.4409C70.8781 21.4409 70.7863 21.2123 70.5129 20.5308L70.5066 20.5154L66.6636 11.1616ZM54.996 21.4395H55.0885C58.8847 21.3931 61.3388 18.6628 61.3395 15.1898C61.3395 11.6713 58.9316 9.54115 55.1818 9.54115H55.0885C50.5512 9.54115 48.8845 12.8745 48.8845 15.4668C48.8845 18.1523 50.6437 21.4395 54.996 21.4395ZM55.0885 10.2823C55.0469 10.2823 54.996 10.273 54.9398 10.2627C54.8711 10.25 54.7946 10.236 54.7183 10.236C52.959 10.236 51.0147 11.1623 51.0147 15.0055C51.0147 17.9224 52.4962 20.3296 55.0885 20.608C55.2735 20.6535 55.4595 20.6535 55.6445 20.6535C56.7096 20.6535 59.2093 20.1445 59.2093 15.7467C59.2093 12.5036 57.4038 10.4675 55.0885 10.2823ZM85.0443 9.4486C84.9058 9.4486 84.859 9.54115 84.6737 9.95762V10.0039V10.0502L80.8319 19.5413C80.5072 20.2817 80.2302 20.8371 79.534 20.9304H79.0725C78.9322 20.9304 78.8404 20.9774 78.8404 21.0692C78.8404 21.1625 78.979 21.208 79.1643 21.208C79.6941 21.208 80.2455 21.1874 80.6062 21.1739C80.7807 21.1674 80.9102 21.1625 80.9705 21.1625C81.2016 21.1625 81.4913 21.1739 81.78 21.1853C82.0696 21.1967 82.3593 21.208 82.5905 21.208C82.7308 21.208 82.8225 21.1625 82.8225 21.0692C82.8225 20.9767 82.7757 20.9304 82.6372 20.9304H82.3602C81.8969 20.9304 81.7575 20.7452 81.7575 20.4668C81.7575 20.2817 81.8493 19.9586 81.9896 19.5413L82.8225 17.3648C82.8225 17.2723 82.8693 17.226 82.9628 17.226H86.3414C86.4331 17.226 86.479 17.2716 86.5249 17.3172L86.5267 17.3193L87.7302 20.5602C87.777 20.7452 87.6834 20.8841 87.5917 20.9304C87.4513 20.9304 87.3596 20.9774 87.3596 21.0692C87.3596 21.1625 87.5908 21.1625 87.8219 21.1625C89.0723 21.208 90.1831 21.208 90.6941 21.208C91.294 21.208 91.4343 21.1625 91.4343 21.0692C91.4343 20.9767 91.3408 20.9304 91.2023 20.9304C91.017 20.9304 90.8317 20.9304 90.5537 20.8841C90.2767 20.7923 89.8125 20.5609 89.2576 19.2182C88.6324 17.7973 87.4846 14.9295 86.6049 12.733L86.6031 12.7288L86.6022 12.7254L86.5995 12.72C86.049 11.3434 85.6038 10.2324 85.4617 9.91139C85.3213 9.54115 85.2296 9.4486 85.0443 9.4486ZM84.6737 16.4864H86.0634C86.1084 16.4864 86.1552 16.44 86.1084 16.3931L84.7654 12.6439C84.7654 12.5506 84.7654 12.5036 84.7196 12.5036H84.6737C84.6485 12.5036 84.6368 12.5328 84.6233 12.5668C84.6134 12.5935 84.6017 12.6232 84.581 12.6439L83.2381 16.3483C83.1913 16.44 83.2381 16.4871 83.2381 16.4871L84.6737 16.4864ZM133.706 20.5139C133.706 20.8371 133.751 20.9304 133.983 21.0692C134.632 21.3013 135.325 21.4395 136.208 21.4402C137.041 21.4402 137.875 21.3021 138.615 20.7931C139.726 20.0511 140.051 19.0338 140.051 18.1531C140.051 16.6722 139.355 15.6526 137.551 14.2636L137.133 13.9396C135.882 12.9671 135.513 12.4581 135.513 11.7177C135.513 10.8839 136.208 10.2353 137.319 10.2353C138.29 10.2353 138.799 10.6526 138.985 10.9772C139.309 11.3467 139.355 11.8094 139.355 11.9483C139.355 12.1349 139.401 12.2267 139.54 12.2267C139.68 12.2267 139.725 12.0878 139.725 11.7177C139.725 10.9354 139.75 10.4526 139.764 10.1964C139.768 10.104 139.772 10.0407 139.772 10.0039C139.772 9.86506 139.68 9.81883 139.54 9.77251C139.169 9.68004 138.522 9.54115 137.549 9.54115C135.42 9.54115 133.983 10.7451 133.983 12.3648C133.983 13.6157 134.586 14.6801 136.252 15.9773L136.994 16.5326C138.243 17.5051 138.429 18.2456 138.429 18.9398C138.429 19.7735 137.78 20.699 136.437 20.699C135.466 20.699 134.586 20.2817 134.262 19.1711C134.169 18.8927 134.077 18.5688 134.077 18.3837C134.077 18.2919 134.077 18.1053 133.937 18.1053C133.798 18.1053 133.798 18.2919 133.798 18.5225C133.751 18.7546 133.706 19.6801 133.706 20.5139ZM124.77 14.1247C124.77 11.8094 124.77 11.393 124.723 10.931C124.677 10.4211 124.538 10.1435 124.214 10.0972C124.03 10.051 123.797 10.051 123.659 10.051C123.474 10.051 123.38 10.0047 123.38 9.86587C123.38 9.77331 123.52 9.72699 123.797 9.72699C124.095 9.72699 124.513 9.7403 124.9 9.75263C125.236 9.76333 125.549 9.77332 125.742 9.77332C125.905 9.77332 126.175 9.76432 126.477 9.75433C126.863 9.74156 127.303 9.72699 127.64 9.72699C127.779 9.72699 127.919 9.77331 127.919 9.86587C127.919 10.0047 127.825 10.051 127.687 10.051C127.547 10.051 127.408 10.051 127.223 10.0972C126.805 10.1435 126.668 10.4211 126.621 10.931V16.7632C126.621 18.2927 126.621 19.4503 126.667 20.1437C126.713 20.5609 126.852 20.8378 127.27 20.8841C127.502 20.9304 127.825 20.9304 128.103 20.9304C128.242 20.9304 128.288 20.9767 128.288 21.0692C128.288 21.1625 128.195 21.208 128.056 21.208C127.435 21.208 126.831 21.1911 126.359 21.1779C126.058 21.1694 125.811 21.1625 125.648 21.1625C125.51 21.1625 125.257 21.1707 124.965 21.1801C124.567 21.1929 124.097 21.208 123.749 21.208C123.517 21.208 123.425 21.1625 123.425 21.0692C123.425 20.9774 123.472 20.9304 123.702 20.9304C123.887 20.9304 124.074 20.9304 124.213 20.8841C124.537 20.8378 124.63 20.5602 124.674 20.0967C124.768 19.4495 124.768 18.2919 124.768 16.7625V14.1247H124.77ZM110.371 10.6526L112.686 10.6063H112.69V16.7625C112.69 18.1986 112.69 19.4026 112.596 20.0049C112.549 20.5139 112.457 20.8378 112.133 20.8841C111.994 20.9304 111.809 20.9304 111.577 20.9304C111.392 20.9304 111.345 20.9774 111.345 21.0692C111.345 21.1625 111.438 21.208 111.624 21.208C111.97 21.208 112.456 21.1929 112.868 21.1801H112.869C113.17 21.1706 113.431 21.1625 113.567 21.1625C113.728 21.1625 113.964 21.1693 114.255 21.1775C114.718 21.1908 115.321 21.208 115.976 21.208C116.114 21.208 116.253 21.1625 116.253 21.0692C116.253 20.9767 116.162 20.9304 116.021 20.9304C115.789 20.9304 115.465 20.9304 115.233 20.8841C114.772 20.8378 114.678 20.5139 114.632 20.0504C114.54 19.4033 114.54 18.1993 114.54 16.7632V10.6063L116.484 10.6526C117.826 10.6526 118.243 11.1153 118.243 11.4393V11.6251C118.288 11.8572 118.335 11.9035 118.428 11.9035C118.544 11.9035 118.563 11.8385 118.593 11.7362C118.599 11.7161 118.606 11.6942 118.614 11.6714C118.614 11.4502 118.626 11.0724 118.639 10.7181C118.65 10.4052 118.66 10.1106 118.66 9.95843C118.66 9.72699 118.613 9.63443 118.519 9.63443C118.481 9.63443 118.424 9.64532 118.342 9.66088C118.131 9.70118 117.752 9.77332 117.084 9.77332H111.019C110.51 9.77332 109.908 9.77331 109.491 9.72699C109.28 9.70054 109.128 9.64388 109.011 9.60016C108.924 9.56742 108.856 9.54187 108.796 9.54187C108.75 9.54187 108.703 9.63443 108.656 9.81955C108.611 9.95843 108.332 11.2549 108.332 11.5333C108.332 11.6722 108.332 11.7639 108.471 11.7639C108.543 11.7639 108.587 11.7091 108.624 11.6628L108.625 11.6627C108.635 11.6489 108.646 11.6357 108.656 11.6251C108.665 11.5985 108.674 11.5685 108.684 11.5365C108.725 11.401 108.777 11.2283 108.888 11.1161C109.12 10.7451 109.49 10.6526 110.371 10.6526ZM99.86 9.77251C100.648 9.77251 101.526 9.91139 102.222 10.4211C102.683 10.6526 103.24 11.4393 103.24 12.4581C103.24 13.5687 102.777 14.5882 101.249 15.837C101.702 16.3955 102.116 16.9146 102.497 17.3943C103.287 18.3861 103.943 19.2096 104.536 19.8645C105.385 20.7145 105.975 20.8297 106.224 20.8783L106.249 20.8834C106.434 20.9296 106.573 20.9296 106.666 20.9296C106.805 20.9296 106.852 20.976 106.852 21.0684C106.852 21.1618 106.758 21.2073 106.573 21.2073H105.138C104.305 21.2073 103.888 21.1155 103.517 20.9304C102.823 20.5602 102.266 19.8645 101.434 18.7069C100.832 17.8276 100.091 16.8088 99.9067 16.5767L99.86 16.5312C99.7664 16.4848 99.7214 16.4848 99.6279 16.4848L98.2849 16.4386C98.2391 16.4386 98.1932 16.4848 98.1932 16.5774V16.7625C98.1932 18.1986 98.1932 19.4026 98.2391 20.0049C98.2849 20.5139 98.3794 20.8371 98.8417 20.8841C99.0738 20.9304 99.3967 20.9304 99.582 20.9304C99.7223 20.9304 99.8141 20.9767 99.8141 21.0692C99.8141 21.1625 99.6747 21.208 99.4903 21.208C98.9263 21.208 98.2876 21.1894 97.828 21.176C97.5689 21.1685 97.3665 21.1625 97.2667 21.1625C97.1516 21.1625 96.9177 21.1703 96.6442 21.1794C96.2557 21.1924 95.787 21.208 95.4614 21.208C95.2293 21.208 95.1358 21.1625 95.1358 21.0692C95.1358 20.9774 95.1826 20.9304 95.3688 20.9304C95.6008 20.9304 95.7852 20.9304 95.9237 20.8841C96.2017 20.8378 96.2952 20.5139 96.3411 20.0049C96.4338 19.4026 96.4338 18.1986 96.4338 16.7625V14.124V10.9302C96.3879 10.4204 96.2494 10.1427 95.7384 10.0965C95.5999 10.0502 95.3688 10.0502 95.1358 10.0502C94.9514 10.0502 94.9055 10.0039 94.9055 9.91139C94.9055 9.77251 94.9973 9.72627 95.2293 9.72627C95.7097 9.72627 96.2575 9.74345 96.6856 9.75685C96.9609 9.76549 97.1857 9.77251 97.3126 9.77251C97.5743 9.77251 97.9935 9.76036 98.4019 9.74858H98.4028C98.7914 9.73725 99.1709 9.72627 99.3958 9.72627C99.537 9.72627 99.6747 9.72627 99.86 9.77251ZM100.544 15.519C100.362 15.6092 100.178 15.7006 99.86 15.7459L99.4903 15.7452C99.1197 15.7452 98.6564 15.699 98.3326 15.5601C98.2391 15.5601 98.1932 15.513 98.1932 15.328V10.7443C98.1932 10.6518 98.2391 10.5592 98.3326 10.5592C98.4711 10.4667 98.7958 10.4666 99.1197 10.4666C99.3508 10.4666 99.582 10.5123 99.86 10.6055C100.6 10.8369 101.482 11.5774 101.482 13.1985C101.482 14.4479 101.018 15.1436 100.554 15.5138L100.544 15.519Z" fill="#111111"/>
</svg>
