<svg width="105" height="36" viewBox="0 0 105 36" fill="none" xmlns="http://www.w3.org/2000/svg">
<path fill-rule="evenodd" clip-rule="evenodd" d="M49.8036 3.42837C78.3022 -1.53327 102.542 0.984343 103.947 9.05187C104.659 13.1391 99.3667 17.865 90.2773 22.1813C90.5354 21.803 90.7001 21.3604 90.7468 20.8376C90.781 20.4671 90.7846 20.3183 90.7855 20.1171V17.16H86.8583V18.8222H87.9683V20.3657C87.9701 20.4779 87.9665 20.6384 87.9422 20.7733C87.9296 20.8515 87.7875 21.538 86.87 21.538C85.9453 21.538 85.8032 20.8515 85.7888 20.7733C85.7717 20.6739 85.7627 20.5386 85.7654 20.3657V15.3844C85.7654 15.1838 85.7798 15.0026 85.8086 14.8765C85.8598 14.6469 86.0658 14.1128 86.8601 14.1128C87.6642 14.1128 87.8603 14.6459 87.9062 14.876C87.9377 15.0268 87.9413 15.2681 87.9413 15.2821V15.9279H90.7639V15.4951V15.4817C90.7648 15.3707 90.7657 15.0819 90.7378 14.8106C90.5174 12.5565 88.5143 12.0877 86.8799 12.0877C84.7687 12.0877 83.245 12.8823 83.0138 14.8091C82.9922 14.9882 82.9688 15.3351 82.9688 15.5327L82.9679 20.1161C82.9688 20.323 82.9742 20.4748 83.0066 20.8376C83.1874 22.8313 84.9289 23.5621 86.879 23.5621C86.9626 23.5621 87.0436 23.5564 87.1236 23.5507C87.1668 23.5477 87.2091 23.5447 87.2523 23.5425C78.6809 27.2005 67.4183 30.4649 54.891 32.6455C26.3931 37.6071 2.15364 35.092 0.747087 27.0235C0.025598 22.8761 5.48646 18.0724 14.8215 13.7067C14.7024 13.9529 14.6188 14.2147 14.5734 14.4844C14.4849 15.0283 14.4936 15.4586 14.6002 15.964C14.8744 17.2564 16.2713 18.0205 17.5148 18.7008C18.4347 19.204 19.2706 19.6612 19.5062 20.2524C19.6046 20.4985 19.5808 20.8201 19.5268 21.0382C19.4105 21.5128 19.0739 21.7449 18.4975 21.7449C17.8892 21.7449 17.4425 21.4058 17.4425 20.7912L17.441 19.6982H14.4453L14.4432 20.5756C14.4432 22.4304 15.597 23.7757 18.4373 23.7757C20.4722 23.7757 22.0706 23.0737 22.3295 21.2544C22.4562 20.3657 22.3758 19.7445 22.3166 19.4542C22.0553 18.1475 20.5526 17.343 19.2766 16.6598C18.3499 16.1637 17.5425 15.7314 17.4168 15.2172C17.3743 15.0341 17.3705 14.844 17.4055 14.6594C17.51 14.1921 17.8336 13.9548 18.3591 13.9548C18.9844 13.9548 19.3374 14.3197 19.3374 14.9084V15.615H22.1319V14.8148C22.1319 14.0351 21.9019 13.4093 21.4464 12.9533C20.8639 12.3723 19.9051 12.0758 18.6123 12.0476C27.0282 8.58818 37.8351 5.51314 49.8036 3.42837ZM28.6215 13.6357L30.0512 23.3501H33.048L31.0336 12.3795H26.1173L24.0906 23.3501H27.1039L28.5701 13.6357H28.6215ZM44.5445 23.3501L44.4781 13.8235H44.4297L42.6568 23.3501H39.8288L38.0646 13.8235H38.0142L37.9499 23.3501H35.1477L35.3906 12.3795H39.8978L41.2101 20.5288H41.2744L42.5904 12.3795H47.0955L47.3374 23.3501H44.5445ZM53.8853 23.7206C55.3569 23.7206 57.4383 23.3491 57.7406 21.2241C57.8656 20.3389 57.7855 19.727 57.7271 19.4419C57.4671 18.1491 55.9803 17.3553 54.7165 16.6803C53.7954 16.1886 52.993 15.7598 52.868 15.2471C52.8248 15.0661 52.8203 14.8782 52.8545 14.6953C52.9597 14.2327 53.2791 13.9975 53.8089 13.9975C54.4052 13.9975 54.7758 14.3434 54.7758 14.9413V15.6397H57.5436V14.8482C57.5436 14.0767 57.3151 13.4566 56.8636 13.0048C56.2591 12.3995 55.2499 12.0969 53.8628 12.0969C52.313 12.0969 50.3872 12.5138 50.0619 14.5204C49.9739 15.0587 49.9817 15.4848 50.0887 15.9866C50.3576 17.2604 51.745 18.0226 52.9786 18.7002C53.888 19.1999 54.7147 19.6537 54.9458 20.2328C55.0403 20.4737 55.0187 20.7928 54.9647 21.0115C54.8487 21.4809 54.5159 21.7094 53.9465 21.7094C53.3078 21.7094 52.895 21.3506 52.895 20.7645L52.8932 19.6848H49.9333L49.9317 20.5514C49.9317 22.6764 51.4427 23.7206 53.8853 23.7206ZM67.9913 20.2273C67.9949 20.4331 67.9751 20.8442 67.9634 20.9497C67.7952 22.7572 66.5017 23.6758 64.1315 23.6758C61.7505 23.6758 60.4571 22.7572 60.2898 20.9497C60.27 20.7101 60.261 20.4697 60.2619 20.2292V12.3769H63.0935V20.4768C63.0908 20.6579 63.0998 20.7918 63.1178 20.8849C63.1529 21.0651 63.3319 21.6496 64.1315 21.6496C64.9276 21.6496 65.1066 21.0645 65.1444 20.8869C65.1606 20.7912 65.1704 20.6507 65.1704 20.4763V12.3769H67.9913V20.2273ZM76.2505 23.2383H80.1903V12.3795H77.4243L77.5691 20.7269H77.5116L75.0676 12.3795H70.9623V23.2383H73.7076L73.561 14.5487H73.6059L76.2505 23.2383Z" fill="#111111"/>
</svg>
