<svg width="127" height="31" viewBox="0 0 127 31" fill="none" xmlns="http://www.w3.org/2000/svg">
<path fill-rule="evenodd" clip-rule="evenodd" d="M0.765503 0.198486H30.8654H31.6345H126.565V21.5097V22.2788V30.6511H31.6345H30.8654H0.765503V0.198486ZM31.6345 29.8815V22.2788H125.796V29.8815H31.6345ZM31.6345 0.967109V21.509H125.796V0.967109H31.6345ZM30.865 29.8815V0.967109H1.53413V29.8815H30.865ZM99.4008 26.0068C99.4008 26.8436 98.9735 27.6504 97.976 27.6504C96.9794 27.6504 96.5512 26.8436 96.5512 26.0068C96.5512 25.1513 97.0216 24.3565 97.976 24.3627C98.9295 24.3565 99.4008 25.1513 99.4008 26.0068ZM100.057 26.0068C100.057 24.7601 99.2884 23.8328 97.976 23.8328C96.6627 23.8328 95.8946 24.7601 95.8946 26.0068C95.8946 27.283 96.6564 28.1802 97.976 28.1802C99.2947 28.1802 100.057 27.283 100.057 26.0068ZM63.0634 25.7113C63.6511 25.7113 63.9983 25.4588 63.9983 25.0552C63.9983 24.6758 63.7006 24.4352 63.1308 24.4352H62.5368V25.7113H63.0634ZM62.9764 23.9053C63.7779 23.9053 64.5524 24.0217 64.6459 24.8648C64.6522 24.921 64.6549 24.9804 64.6549 25.0433C64.6549 25.555 64.2645 25.9163 63.7635 26.0006V26.0124C63.9551 26.0849 64.0478 26.175 64.1836 26.4343L65.0021 28.1077H64.2951L63.6331 26.6505C63.4406 26.2412 63.2373 26.2412 62.9084 26.2412H62.5368V28.1077H61.9172V23.9053H62.9764ZM35.4912 28.1077H36.1106V23.9053H35.4912V28.1077ZM41.1833 24.652L43.1408 28.1077H43.9334V23.9053H43.314V27.2892H43.3019L41.3938 23.9053H40.5517V28.1077H41.1711V24.652H41.1833ZM49.2369 24.4352H47.8926V23.9053H51.2V24.4352H49.8562V28.1077H49.2369V24.4352ZM55.1962 23.9053H57.6179V24.4352H55.8153V25.6632H57.4571V26.1931H55.8153V27.5779H57.6179V28.1077H55.1962V23.9053ZM69.9206 23.9053H69.0787V28.1077H69.6975V24.652H69.7092L71.6665 28.1077H72.4599V23.9053H71.8401V27.2892H71.8275L69.9206 23.9053ZM77.713 26.5543L78.5738 24.4715L79.4355 26.5543H77.713ZM78.2715 23.9053L76.4249 28.1077H77.0752L77.5151 27.0479H79.6334L80.0723 28.1077H80.7488L78.921 23.9053H78.2715ZM85.1221 24.4352H83.7783V23.9053H87.0858V24.4352H85.7419V28.1077H85.1221V24.4352ZM91.0517 28.1077H91.6696V23.9053H91.0517V28.1077ZM104.908 24.652L106.865 28.1077H107.657V23.9053H107.038V27.2892H107.026L105.117 23.9053H104.275V28.1077H104.895V24.652H104.908ZM112.911 26.5543L113.772 24.4715L114.633 26.5543H112.911ZM113.468 23.9053L111.623 28.1077H112.274L112.713 27.0479H114.831L115.271 28.1077H115.945L114.119 23.9053H113.468ZM119.911 23.9053H120.53V27.5779H122.339V28.1077H119.911V23.9053ZM16.1553 4.72477C16.5014 5.0503 16.8603 5.38195 17.2228 5.7171C18.0187 6.45271 18.8323 7.20469 19.5677 7.94336L18.3168 9.51038V9.58765L21.6331 11.0286L23.8742 9.5317L22.5221 8.06983V7.96459C23.0905 7.57313 23.6261 7.1876 24.1529 6.80855L24.1536 6.80802C24.913 6.26148 25.6539 5.72825 26.4478 5.20969L25.797 11.7591H6.43937L5.78876 5.20969C6.58221 5.72807 7.32277 6.26103 8.08177 6.80738C8.60887 7.1867 9.14534 7.57286 9.71418 7.96459V8.06983L8.36214 9.5317L10.6032 11.0286L13.9198 9.58765V9.51038L12.6689 7.94336C13.4049 7.20379 14.2195 6.45091 15.0163 5.71449C15.3778 5.38033 15.7359 5.0494 16.081 4.72477H16.1553ZM25.6487 12.9399L25.4534 15.1226L18.2871 15.1199L18.2894 22.6611L21.7795 22.6389C22.5578 22.6379 23.3773 21.8413 23.2107 21.3181C23.0229 20.559 22.3217 20.0532 21.6711 19.6737C21.7501 19.6737 22.6611 19.0431 23.616 18.3822C24.2356 17.9533 24.8736 17.5115 25.3147 17.2213C25.2858 17.4889 25.0139 19.5974 24.7833 21.3846C24.6085 22.7399 24.4574 23.9111 24.4545 23.9536L16.184 27.0102H16.0521L7.78205 23.9536C7.77899 23.9119 7.634 22.7878 7.46372 21.4678C7.23102 19.6634 6.95109 17.493 6.92186 17.2213C7.3628 17.5115 8.0009 17.9532 8.62048 18.3822C9.5753 19.0431 10.4864 19.6737 10.5653 19.6737C9.9145 20.0532 9.21361 20.559 9.02543 21.3181C8.8592 21.8413 9.67856 22.6379 10.4567 22.6389L13.947 22.6611L13.9493 15.1199L6.78343 15.1226L6.58806 12.9399H25.6487ZM73.8874 9.00531H74.1042V6.70322C73.1507 6.1557 72.0398 5.94512 70.9406 5.94512C67.1285 5.94512 65.1218 8.47209 65.1218 10.9709C65.1218 14.1434 67.8077 15.8281 70.8255 15.8281C71.8509 15.8281 72.8476 15.6597 73.7722 15.2245C74.1186 14.4104 74.3929 13.568 74.5656 12.7117L74.3641 12.6273C73.7138 14.1434 72.9627 15.4912 71.072 15.4912C68.977 15.4912 66.7966 13.568 66.7966 10.8023C66.7966 8.38772 68.2844 6.28199 70.9262 6.28199C72.6605 6.28199 73.613 7.41904 73.8874 9.00531ZM61.3801 15.6645C61.0694 15.7159 60.7824 15.7347 60.5121 15.7347C59.9056 15.7347 59.6748 15.3978 59.6026 14.8504C59.1403 15.3556 58.5049 15.8049 57.7681 15.8049C56.8445 15.8049 56.3237 15.0467 56.3237 14.2043C56.3237 13.9939 56.3529 13.7973 56.4111 13.5866L59.6026 12.1829C59.7177 10.6527 59.3139 10.0211 58.1723 10.0211C57.2638 10.0211 57.2684 10.4067 57.2762 11.0604C57.277 11.1233 57.2778 11.1887 57.2778 11.2564L56.5556 11.2986L56.5287 11.2987C56.4092 11.2997 56.223 11.3012 56.223 11.1582C56.223 10.7791 57.8118 9.31906 58.9819 9.31906C60.3099 9.31906 60.7143 10.3019 60.7143 11.4249V13.4184C60.7143 13.5138 60.7136 13.6063 60.7129 13.6958V13.6968C60.7048 14.7196 60.6998 15.3512 61.8085 15.2361C62.3529 15.0887 62.4318 14.794 62.4318 14.0359V8.06875L62.4319 8.03367C62.4322 7.47158 62.4323 7.28664 61.7245 6.79119V6.65078L63.3848 6.03319L63.544 6.08913V14.0359C63.544 15.1871 63.6016 15.2993 64.6702 15.4538V15.6645H61.3801ZM36.9703 10.8632C38.3566 10.8494 39.9743 10.2317 39.9743 8.6734C39.9743 7.031 38.4866 6.37086 36.9703 6.38498V10.8632ZM35.6994 9.01017C35.6994 6.86261 35.6272 6.5396 34.0099 6.3991V6.20274L37.5334 6.09039C41.1726 5.97795 41.4618 7.70472 41.4618 8.37872C41.4618 9.55769 40.7108 10.2317 39.6709 10.681L39.7431 10.7791L39.7891 10.8576C40.8932 12.7403 42.2743 15.0955 44.6242 15.5662L44.5811 15.7765C44.4328 15.7697 44.2883 15.7641 44.1475 15.7585C42.8345 15.7065 41.8427 15.6672 41.086 14.9064C40.1329 13.9377 39.3819 12.7023 39.0785 12.0989C38.6412 11.2163 38.237 11.1954 37.6274 11.1641C37.4321 11.154 37.2156 11.1429 36.9703 11.102V13.3622C36.9703 14.9064 36.9991 15.1871 38.9774 15.4538V15.6645H33.9085V15.4538C35.6418 15.2294 35.656 14.8082 35.6994 13.3622V9.01017ZM46.7031 9.6194C45.1434 9.6194 44.508 11.1915 44.508 12.4833C44.508 13.7888 45.259 15.4872 46.8186 15.4872C48.2773 15.4872 48.9269 13.8729 48.9269 12.6656C48.9269 11.3742 48.2773 9.6194 46.7031 9.6194ZM46.7176 15.7961C44.7392 15.7961 43.165 14.5749 43.165 12.5815C43.165 10.6442 44.7968 9.31033 46.7319 9.31033C48.696 9.31033 50.2703 10.546 50.2703 12.5251C50.2703 14.4344 48.6239 15.7961 46.7176 15.7961ZM50.7294 10.7135L52.9392 16.2026L52.4627 17.2836C52.4465 17.3176 52.426 17.3657 52.4019 17.4227C52.2764 17.7189 52.0504 18.2523 51.784 18.2523C51.6454 18.2523 51.3314 18.0546 51.1373 17.9324L51.1365 17.932C51.0882 17.9015 51.0474 17.8758 51.0186 17.8591C50.7295 17.9573 50.5562 18.2243 50.5562 18.519C50.5562 18.9121 50.8739 19.2209 51.2641 19.2209C51.8415 19.2209 52.2173 18.7857 52.7513 17.48L54.9755 12.0471L55.5818 10.6858C55.8566 10.1522 56.0581 9.89942 56.6941 9.82917V9.61859H54.1668V9.82917C55.2353 9.96958 55.1199 10.4611 54.4701 12.286L53.5748 14.813L52.1593 11.247L52.1387 11.1961C51.8575 10.5008 51.6079 9.88386 52.6793 9.82917V9.61859H49.6898V9.82917C50.412 9.9416 50.4697 10.0819 50.7294 10.7135ZM57.6528 13.4324C57.5951 13.6147 57.5514 13.7973 57.5514 13.994C57.5514 14.5834 57.8986 15.1028 58.5625 15.1028C58.9528 15.1028 59.3424 14.8504 59.6026 14.5834V12.4638L57.6528 13.4324ZM76.3691 13.4324C76.3115 13.6147 76.2675 13.7973 76.2675 13.994C76.2675 14.5834 76.6147 15.1028 77.2785 15.1028C77.6689 15.1028 78.0593 14.8504 78.3192 14.5834V12.4638L76.3691 13.4324ZM78.3192 12.1829C78.4344 10.6527 78.0305 10.0211 76.889 10.0211C75.9796 10.0211 75.9841 10.4071 75.9922 11.0614C75.9931 11.1238 75.9931 11.1892 75.9931 11.2564L75.2717 11.2986L75.2447 11.2987C75.126 11.2997 74.9398 11.3012 74.9398 11.1582C74.9398 10.7791 76.5283 9.31906 77.6977 9.31906C79.0262 9.31906 79.4301 10.3019 79.4301 11.4249V13.4184C79.4301 13.5271 79.4292 13.6329 79.4283 13.7351C79.4175 14.7949 79.4103 15.4819 80.6867 15.2152V15.2165C81.096 15.062 81.1356 14.7249 81.1455 13.9179V11.3499V11.3149C81.1464 10.7528 81.1464 10.5677 80.4385 10.0723V9.93198L82.1565 9.3142L82.3157 9.3706L82.2581 11.0271H82.2869C82.6035 10.283 83.414 9.3142 84.3234 9.3142C84.7273 9.3142 85.0601 9.56705 85.0601 9.96022C85.0601 10.3392 84.6409 10.69 84.3081 10.8445C84.2811 10.8245 84.2532 10.8028 84.2235 10.7802C83.9843 10.598 83.6668 10.3562 83.3843 10.3812C82.2204 10.4877 82.2509 12.2087 82.2572 12.567C82.2572 12.5797 82.2581 12.5908 82.2581 12.6001C82.2581 12.6049 82.2581 12.6093 82.2581 12.6132V14.0311C82.2581 15.1824 82.3157 15.2948 83.7018 15.4491V15.6597H80.1245C79.8034 15.7148 79.5066 15.7347 79.2286 15.7347C78.6215 15.7347 78.3912 15.3978 78.3192 14.8504C77.8569 15.3556 77.2218 15.8049 76.4851 15.8049C75.5605 15.8049 75.0406 15.0467 75.0406 14.2043C75.0406 13.9939 75.0693 13.7973 75.1269 13.5866L78.3192 12.1829ZM110.684 13.4276C110.627 13.6101 110.583 13.7924 110.583 13.9893C110.583 14.5789 110.93 15.0983 111.595 15.0983C111.984 15.0983 112.374 14.8455 112.634 14.5789V12.4589L110.684 13.4276ZM112.634 12.178C112.75 10.6481 112.346 10.0163 111.204 10.0163C110.296 10.0163 110.3 10.4026 110.308 11.0574C110.308 11.1198 110.309 11.1845 110.309 11.2516L109.587 11.2937L109.561 11.2939C109.441 11.2949 109.255 11.2964 109.255 11.1533C109.255 10.7744 110.843 9.3142 112.013 9.3142C113.342 9.3142 113.746 10.2971 113.746 11.42V13.4134C113.746 13.5669 113.743 13.7134 113.74 13.8522C113.72 14.7853 113.707 15.3696 114.709 15.3681C115.423 15.2633 115.484 14.9918 115.497 14.0311V11.3499V11.3176C115.497 10.7533 115.497 10.5686 114.789 10.0723V9.93198L116.508 9.3142L116.667 9.3706L116.551 10.3953C117.374 9.80569 118.168 9.3142 119.093 9.3142C120.826 9.3142 120.912 10.7042 120.912 11.5324V14.0311C120.912 15.1824 120.97 15.2948 122.039 15.4491V15.6597H118.674V15.4491C119.743 15.2948 119.785 15.1263 119.801 14.0311V12.4168V12.3482C119.802 11.3709 119.803 10.0443 118.082 10.0443C117.491 10.0443 117.086 10.2269 116.609 10.6481V14.0311C116.609 15.1824 116.667 15.2948 117.736 15.4491V15.6597H114.672C114.312 15.7398 114.043 15.736 113.75 15.7318C113.682 15.7308 113.614 15.7298 113.544 15.7298C112.938 15.7298 112.706 15.3929 112.634 14.8455C112.173 15.3507 111.537 15.8 110.801 15.8C109.875 15.8 109.356 15.0419 109.356 14.1998C109.356 13.9892 109.385 13.7924 109.442 13.5819L112.634 12.178ZM87.8611 6.97577C87.8611 7.36894 87.5283 7.69195 87.1244 7.69195C86.7197 7.69195 86.3868 7.36894 86.3868 6.97577C86.3868 6.58287 86.7197 6.26022 87.1244 6.26022C87.5283 6.26022 87.8611 6.58287 87.8611 6.97577ZM85.5071 15.6597V15.4491C86.5748 15.2948 86.6189 15.1263 86.6333 14.0311V11.3499V11.3224C86.6333 10.7544 86.6333 10.5699 85.7518 10.0723V9.93198L87.5859 9.3142L87.746 9.3706V14.0311C87.746 15.1824 87.8027 15.2948 88.8722 15.4491V15.6597H85.5071ZM92.3298 15.365C90.655 15.365 90.5111 14.1155 90.5111 12.8099V10.3251C90.9581 10.1426 91.362 10.0163 91.854 10.0163C93.2554 10.0163 94.4095 11.1112 94.4095 12.7958C94.4095 14.7473 93.125 15.365 92.3298 15.365ZM89.3984 8.02891V8.0639V15.2384C90.1791 15.5755 90.8286 15.8 91.6957 15.8C93.2833 15.8 95.6373 14.7189 95.6373 12.2342C95.6373 10.7601 94.5264 9.3142 92.9217 9.3142C92.0996 9.3142 91.2181 9.72167 90.5111 10.1003V6.08437L90.3527 6.02833L88.6914 6.64601V6.78643C89.3984 7.2816 89.3984 7.46681 89.3984 8.02891ZM97.4165 12.8099C97.4165 14.1155 97.5613 15.365 99.2362 15.365C100.03 15.365 101.315 14.7473 101.315 12.7958C101.315 11.1112 100.16 10.0163 98.7595 10.0163C98.2683 10.0163 97.8636 10.1426 97.4165 10.3251V12.8099ZM96.3047 8.0639V8.03017C96.3047 7.46708 96.3047 7.28196 95.5977 6.78643V6.64601L97.2573 6.02833L97.4165 6.08437V10.1003C98.1244 9.72167 99.005 9.3142 99.8281 9.3142C101.431 9.3142 102.543 10.7601 102.543 12.2342C102.543 14.7189 100.19 15.8 98.6003 15.8C97.734 15.8 97.0855 15.5755 96.3047 15.2384V8.0639ZM106.007 9.62309C106.771 9.62309 107.177 10.3531 107.306 10.9991L104.534 11.1112C104.693 10.4092 105.184 9.62309 106.007 9.62309ZM106.975 14.9016C105.342 14.9016 104.317 13.54 104.433 12.0799L104.49 11.3778H108.678C108.621 10.1145 107.754 9.3142 106.455 9.3142C104.505 9.3142 103.205 10.8726 103.205 12.6834C103.205 14.3682 104.446 15.8 106.238 15.8C107.364 15.8 108.346 15.0841 108.895 14.1715L108.678 14.0172C108.246 14.5789 107.726 14.9016 106.975 14.9016Z" fill="#111111"/>
</svg>
