<svg width="112" height="53" viewBox="0 0 112 53" fill="none" xmlns="http://www.w3.org/2000/svg">
<path fill-rule="evenodd" clip-rule="evenodd" d="M31.135 18.6497C34.4895 8.40805 42.4307 0.498657 55.702 0.498657C68.0341 0.498657 77.0957 8.51662 80.3834 18.8729C77.3674 10.3851 69.4679 3.97738 59.7947 2.55447C59.9072 2.59386 60.0187 2.63497 60.1302 2.67806C56.4657 2.20555 54.0767 4.16988 53.7957 4.72073C53.9465 4.95253 54.5117 5.0459 55.0784 5.13963C55.6667 5.23677 56.257 5.33428 56.3865 5.58731C56.8749 6.53826 57.5307 6.45587 57.5001 6.01754C57.4227 4.92213 57.9148 5.06668 58.1028 5.122C58.2044 5.15195 58.217 5.15564 58.0011 4.92177C57.9454 4.86159 57.8572 4.82166 57.7637 4.77974C57.4938 4.65795 57.1862 4.51942 57.5388 3.81799C57.8095 4.04862 57.9741 4.03081 58.1612 4.01058C58.3879 3.98593 58.6488 3.95777 59.1723 4.36687C59.7372 4.80717 60.0115 4.99616 60.4478 4.52374C60.7473 4.62961 61.1422 4.9018 61.5847 5.20709C62.0839 5.55097 62.6434 5.93685 63.1975 6.17432C62.9034 6.77528 62.2153 6.61625 61.6306 6.48105C61.18 6.37689 60.7896 6.28685 60.6879 6.56839C60.5206 7.02624 61.0153 7.26605 61.484 7.49326L61.4849 7.49335C61.5793 7.53949 61.6738 7.58519 61.761 7.63196C61.0855 8.25927 60.2112 8.00795 60.2112 8.00795C60.2112 8.00795 60.3884 8.77595 59.5699 9.05344C59.3153 9.13809 59.1516 9.50049 58.9105 10.0315C58.8143 10.2443 58.7054 10.4843 58.5741 10.7443C58.2881 11.3056 57.7888 11.6017 57.1313 11.9917C57.0441 12.0431 56.955 12.0962 56.8633 12.1517C56.2867 12.4992 56.4918 12.9554 56.7427 13.5135C56.9721 14.0241 57.2401 14.6199 56.9829 15.2962C56.3757 15.0489 56.2162 14.4576 56.0816 13.9572C55.9282 13.3875 55.8066 12.9353 55.091 13.2413C54.6488 13.43 54.346 13.3563 54.0514 13.2844C53.6647 13.1902 53.2921 13.0993 52.6368 13.6093C51.6082 13.2133 50.4249 13.547 49.9829 14.3029C49.38 15.3303 48.9828 16.3858 49.5144 17.2343C49.5144 17.2343 50.1132 18.3562 50.3128 18.3562C50.5124 18.3562 51.4738 18.2899 51.873 18.1592C52.2165 18.0466 52.3866 17.69 52.513 17.4248C52.5335 17.3819 52.5528 17.3413 52.5716 17.3046C52.59 17.2683 52.6091 17.2275 52.629 17.1847C52.7524 16.9208 52.9081 16.5875 53.1378 16.8141C53.2702 16.9448 53.5609 16.9448 53.7811 16.9448C54.0014 16.9448 54.1511 16.9448 54.0014 17.0755C53.702 17.3388 53.3353 18.8809 53.3353 18.8809H48.1844C47.9489 18.8809 47.7232 18.6826 47.4781 18.4674C47.4053 18.4034 47.3307 18.338 47.2537 18.2757C46.9196 18.0063 46.4003 18.0365 46.4003 18.0365L46.5795 17.6203C45.8789 17.6203 46.547 16.9488 46.547 16.9488C46.547 16.9488 44.7566 14.2346 44.7912 12.8272C44.7991 12.4853 44.669 12.6 44.5636 12.693C44.5029 12.7465 44.4502 12.7929 44.4369 12.7408C44.3633 13.2688 44.5288 13.78 44.6939 14.2905C44.8854 14.8822 45.0767 15.4731 44.8951 16.0883C44.7823 16.4711 44.6233 15.9858 44.4538 15.4685C44.357 15.1733 44.2569 14.8677 44.1599 14.7071C43.9732 14.4 43.8701 14.346 43.8195 14.3197C43.8053 14.3122 43.7952 14.307 43.7887 14.2989C43.7727 14.2794 43.7771 14.2432 43.7922 14.1195C43.8031 14.0296 43.8196 13.8934 43.838 13.6837C43.9643 12.3205 43.3085 11.1363 43.3085 11.1363C43.3085 11.1363 43.6018 9.47567 44.5937 8.3799C45.7974 7.04891 45.4124 6.79561 45.4124 6.79561C45.4124 6.79561 46.0866 4.92582 46.7078 4.72073C46.8617 4.67072 46.9041 4.54848 46.959 4.39007C47.0322 4.17941 47.1275 3.90479 47.5368 3.65113C47.5425 3.58925 47.5927 3.51819 47.6829 3.44074C39.9276 5.79383 33.7732 11.4601 31.135 18.6497ZM80.3285 34.3158C76.9896 44.5836 67.6006 52.5714 55.702 52.5714C43.0804 52.5714 34.5995 44.6922 31.188 34.539C34.738 43.9965 44.3778 50.7801 55.7203 50.7801C67.1463 50.7801 76.851 43.8899 80.3285 34.3158ZM56.266 16.3195C56.382 16.1481 56.669 16.1849 56.9469 16.2206C57.0504 16.2339 57.152 16.2469 57.2437 16.2492C57.4443 16.2536 57.5352 16.385 57.6278 16.5193C57.7457 16.6897 57.8671 16.8651 58.2197 16.792C58.5201 16.7283 58.6784 16.8611 58.861 17.0137C59.0589 17.1793 59.2847 17.3685 59.7506 17.3549C60.651 17.3268 59.5717 17.6645 59.5717 17.6645C59.5717 17.6645 59.0158 17.3992 58.6578 17.5781C58.5759 17.6182 58.5759 17.6145 58.5786 17.5771C58.5822 17.5266 58.5903 17.4145 58.4068 17.2665C58.1945 17.0952 58.0866 17.0851 57.966 17.0738C57.8059 17.0591 57.6251 17.0423 57.1538 16.6472C56.8201 16.3679 56.4945 16.4256 56.3236 16.4558C56.1943 16.4786 56.1539 16.4857 56.266 16.3195ZM59.1561 33.0874H73.6803C73.6803 33.0874 73.4482 33.4834 73.6479 33.7448C73.8449 34.0062 73.289 34.4807 73.289 34.4807L73.0264 34.8808C72.8995 35.132 72.8528 35.2876 72.8105 35.4307C72.7295 35.7022 72.663 35.9284 72.081 36.6762C71.9029 36.9037 71.7842 36.8877 71.5962 36.8624C71.3731 36.8323 71.0538 36.7893 70.4232 37.1204C69.8637 37.416 69.7369 37.6549 69.539 38.0292C69.3465 38.3907 69.0875 38.8785 68.3076 39.6659C67.0699 40.9124 66.3161 41.179 65.9338 41.3142C65.6927 41.3995 65.5992 41.4325 65.6253 41.626C65.6918 42.1247 65.5785 42.2856 65.0406 42.3981C63.99 42.6221 63.5789 42.8897 63.2911 43.077C63.0212 43.253 62.8602 43.3579 62.3808 43.2888C61.8204 44.7705 60.8282 44.847 60.8282 44.847C60.8282 44.847 61.3113 45.3114 60.7203 45.5587C59.6985 45.9829 59.9836 46.1844 60.1671 46.3139C60.2589 46.3789 60.3254 46.4258 60.1869 46.4734C59.6373 46.6624 59.0014 45.9065 59.1138 45.418C59.4538 43.906 59.6877 43.7753 59.6877 43.7753C59.6877 43.7753 59.148 43.2043 59.8424 42.5147C60.9362 41.234 61.0441 39.1491 61.0441 39.1491C61.0441 39.1491 61.5478 39.4346 61.5478 37.6714C61.5478 36.7025 61.7313 36.4852 61.851 36.3439C61.9679 36.2054 62.0237 36.1399 61.7835 35.5121C61.5775 34.9752 61.1296 34.6234 60.7752 34.4827L59.1561 33.0874ZM63.4305 18.4771L63.1616 18.6376L63.1076 18.3706L63.4305 18.4771ZM61.8474 18.2536C62.0111 18.2406 62.1748 18.2276 62.3358 18.1933C62.1595 18.1222 61.9922 18.0277 61.8258 17.9332C61.5029 17.7498 61.18 17.5666 60.786 17.556C60.3587 17.5649 60.3821 17.6843 60.4136 17.8509C60.4397 17.9873 60.472 18.1553 60.2688 18.32H60.4621L60.786 18.5753C61.1188 18.3116 61.4831 18.2827 61.8474 18.2536ZM7.26248 21.1568H11.3095L10.7025 21.8666V27.1985C10.7025 29.8142 9.2198 30.8235 5.8938 30.8235C2.5679 30.8235 1.08517 29.8142 1.08517 27.1985V21.8666L0.480255 21.1568H4.5272L3.92228 21.8666V27.1141C3.92228 28.2922 4.71456 28.7888 5.8938 28.7888C7.07719 28.7888 7.8674 28.2922 7.8674 27.1141V21.8666L7.26248 21.1568ZM25.3548 21.1568H21.9412L22.5441 21.8666V26.6436L17.6498 21.1568H14.5825L15.1874 21.8666V29.9268L14.5825 30.6386H17.9961L17.3912 29.9268V25.0654L22.5889 30.6386H24.7498V21.8666L25.3548 21.1568ZM32.6137 29.9288L33.2186 30.6386H29.1431L29.7501 29.9288V21.8686L29.1431 21.1568H33.2186L32.6137 21.8686V29.9288ZM46.6569 21.1568H43.2291L43.834 21.8666L41.4143 27.0839L39.0823 21.8666L39.6872 21.1568H35.6565L40.1333 30.6386H42.1354L46.6569 21.1568ZM58.1037 28.065V30.6386H49.0603L49.6631 29.9288V21.8686L49.0603 21.1568H58.1037V23.7303L57.3823 23.1332H52.4718V24.9527H55.5839L56.2885 24.3556V27.4417L55.5839 26.8427H52.4718V28.6622H57.3823L58.1037 28.065ZM68.5576 24.2269C68.5576 24.9085 67.8956 25.4634 66.9736 25.4634H65.1468V23.1332H67.3199C67.9532 23.1332 68.5576 23.4448 68.5576 24.2269ZM71.8696 30.6386L69.2647 26.8989C70.5456 26.3882 71.4397 25.4071 71.4397 24.0279C71.4397 22.4496 70.4601 21.1568 67.7229 21.1568H61.7332L62.3376 21.8685V29.9268L61.7332 30.6386H65.7494L65.1468 29.9268V27.2407H66.3566L68.1969 29.9268L67.5943 30.6386H71.8696ZM81.0391 24.9508C82.8084 25.5197 84.0354 26.3601 84.0354 27.866C84.0354 29.6574 82.768 30.8938 79.9291 30.8938C78.5484 30.8938 76.8636 30.4093 76.1143 30.1258L75.3507 30.9501V27.4398C76.9635 28.4772 78.7778 28.8331 79.7987 28.8331C80.2035 28.8331 80.9959 28.7486 80.9959 28.0771C80.9959 27.5093 80.3168 27.3325 79.4137 27.0976C79.0764 27.0098 78.7076 26.9138 78.3325 26.7864C76.4751 26.147 75.2931 25.379 75.2931 23.6157C75.2931 22.321 76.3446 20.8995 79.6134 20.8995C80.5768 20.8995 81.9737 21.2413 82.7806 21.569L83.5442 20.8432V24.0138C82.2184 23.3885 80.5219 22.9623 79.483 22.9623C78.7049 22.9623 78.2588 23.2176 78.2588 23.5876C78.2588 24.1948 79.3148 24.4786 80.3276 24.751C80.5723 24.8167 80.8142 24.8819 81.0391 24.9508ZM93.7769 27.2267H90.5954L92.1794 23.8309L93.7769 27.2267ZM98.3977 30.6386L93.6726 21.1568H90.4344L90.7789 21.8685L86.5036 30.6386H90.0287L89.4261 29.9268L89.901 28.9316H94.4794L94.9436 29.9268L94.3364 30.6386H98.3977ZM109.779 28.065V30.6386H101.022L101.628 29.9288V21.8686L101.022 21.1568H105.04L104.435 21.8686V28.6622H109.059L109.779 28.065ZM107.752 23.2076C107.752 22.1641 108.612 21.3177 109.669 21.3177C110.726 21.3177 111.586 22.1641 111.586 23.2076C111.586 24.251 110.726 25.0975 109.669 25.0975C108.612 25.0975 107.752 24.251 107.752 23.2076ZM107.934 23.2076C107.934 24.1525 108.708 24.9226 109.669 24.9226C110.628 24.9226 111.406 24.1525 111.406 23.2076C111.406 22.2606 110.628 21.4926 109.669 21.4926C108.708 21.4926 107.934 22.2606 107.934 23.2076ZM109.726 22.2345C109.972 22.2345 110.201 22.3089 110.39 22.4677V22.713C110.211 22.518 109.987 22.4074 109.716 22.4074C109.266 22.4074 108.93 22.7854 108.93 23.2136C108.93 23.6419 109.262 24.0279 109.712 24.0279C109.985 24.0279 110.238 23.8992 110.415 23.6922V23.9394C110.219 24.1063 109.977 24.1988 109.722 24.1988C109.154 24.1988 108.743 23.7645 108.743 23.2136C108.743 22.6667 109.162 22.2345 109.726 22.2345Z" fill="#111111"/>
</svg>
