<svg width="100" height="20" viewBox="0 0 100 20" fill="none" xmlns="http://www.w3.org/2000/svg">
<path fill-rule="evenodd" clip-rule="evenodd" d="M8.14058 14.6986C13.0917 14.6986 16.2221 12.0965 16.2221 7.56356C16.2219 2.58267 12.8729 0.799316 7.41253 0.799316C5.30077 0.799316 2.7524 0.947555 0.932709 1.17045V18.9361H6.24713V14.6986H8.14058ZM10.9809 7.63696C10.9809 9.94174 9.88831 11.5026 7.12127 11.5026H6.24687V4.16264C6.55773 4.14465 6.848 4.14465 7.12127 4.14465C9.74133 4.14447 10.9809 5.40772 10.9809 7.63696ZM75.4869 11.5026C78.2546 11.5026 79.3457 9.94174 79.3457 7.63696C79.3457 5.40772 78.1071 4.14447 75.4869 4.14465C75.2143 4.14465 74.9229 4.14465 74.6152 4.16264V11.5026H75.4869ZM76.5087 14.6986C81.4551 14.6986 84.588 12.0965 84.588 7.56356C84.588 2.58267 81.2392 0.799316 75.7783 0.799316C73.6672 0.799316 71.1171 0.947555 69.2974 1.17045V18.9361H74.6144V14.6986H76.5087ZM93.9779 4.2919C92.4505 4.2919 91.5034 4.7385 91.5034 5.70438C91.5034 6.85709 92.8976 7.35388 94.5482 7.94215C96.9435 8.79542 99.8777 9.84091 99.8777 13.3595C99.8777 17.82 96.2365 19.307 91.7966 19.307C90.0489 19.307 87.8649 19.0106 86.2647 18.4161L85.68 14.3267C87.282 15.1439 89.9778 15.7382 91.7219 15.7382C93.6891 15.7382 94.4906 15.1439 94.4906 14.0301C94.4906 12.8552 93.1279 12.3639 91.5061 11.7796C89.126 10.922 86.19 9.86403 86.19 6.15179C86.19 2.52816 89.1008 0.799316 93.3968 0.799316C95.6537 0.799316 96.8914 1.02221 98.2757 1.31968L98.712 5.18609C97.4751 4.66375 95.6537 4.2919 93.9779 4.2919ZM65.2946 1.17045H59.9804V18.9361H65.2946V1.17045ZM38.4281 1.17045H43.743V18.9361H38.4281V1.17045ZM52.9895 15.3671V1.17045H47.6745V18.9361H57.2855L58.086 15.3671H52.9895ZM29.182 1.17045H34.4968L34.4967 18.9361H29.1817V11.9483H23.6482V18.9361H18.3326V1.17045H23.6485V8.2318H29.182V1.17045Z" fill="#111111"/>
</svg>
