<svg width="137" height="44" viewBox="0 0 137 44" fill="none" xmlns="http://www.w3.org/2000/svg">
<path fill-rule="evenodd" clip-rule="evenodd" d="M19.9729 12.3427C23.2384 12.3427 25.8856 9.73112 25.8856 6.50956C25.8856 3.288 23.2384 0.676392 19.9729 0.676392C16.7074 0.676392 14.0602 3.288 14.0602 6.50956C14.0602 9.73112 16.7074 12.3427 19.9729 12.3427ZM127.879 16.3983C128.335 15.6083 128.074 14.6031 127.294 14.1532C126.515 13.7031 125.513 13.9787 125.057 14.7688C124.601 15.5588 124.862 16.564 125.642 17.0139C126.421 17.4639 127.423 17.1883 127.879 16.3983ZM113.882 17.0659C113.571 16.7589 113.02 16.4518 112.35 16.4518C111.464 16.4518 110.842 16.9714 110.842 18.2939V19.3802H113.499L112.781 21.2459H110.842V29.9602H108.281V21.2459H105.624L100.572 34.4236H98.0591L99.8302 29.9838L95.6178 19.3802H98.2507C98.2507 19.3802 100.644 25.8274 101.075 27.1026H101.099C101.483 25.8274 103.876 19.3802 103.876 19.3802H108.257V18.3176C108.257 15.3655 110.244 14.3736 112.087 14.3736C113.045 14.3736 114.049 14.5862 114.672 14.9641L113.882 17.0659ZM35.1498 22.0016C34.4555 20.3485 33.1868 19.0732 30.6972 19.0732C27.3937 19.0732 25.335 21.3168 25.359 24.6466C25.359 28.0001 27.4177 30.2199 30.6494 30.2199C33.0671 30.2199 34.3358 28.9683 35.1976 27.4096L32.8277 26.5123C32.4447 27.4805 31.8702 28.2126 30.6014 28.2126C28.7343 28.2126 27.9922 26.4886 27.9922 24.6466C27.9922 22.781 28.7822 21.057 30.5775 21.057C31.7984 21.057 32.5405 21.7419 32.8277 22.8754L35.1498 22.0016ZM43.5041 29.9366H45.9458V19.3802H43.3844V24.9772C43.3844 27.0791 42.1875 28.1654 40.9427 28.1654C39.9613 28.1654 39.0038 27.575 39.0038 26.0635V19.3567H36.4423V26.6776C36.4423 29.0392 38.1419 30.2199 40.1767 30.2199C41.8285 30.2199 42.8578 29.4406 43.5041 28.3543V29.9366ZM68.0168 30.2436C70.2672 30.2436 71.7514 29.2045 72.5888 27.6222L70.3626 26.7721C69.9318 27.6931 69.3094 28.3543 67.9929 28.3543C66.0778 28.3543 65.3836 26.8428 65.3118 25.2606H72.972V24.5521C72.972 21.671 71.3682 19.0969 67.9211 19.0969C64.7851 19.0969 62.7025 21.3168 62.7025 24.6466C62.7025 28.0001 64.7373 30.2436 68.0168 30.2436ZM70.3869 23.5603H65.3597C65.5033 22.0252 66.389 20.9152 67.8971 20.9152C69.3334 20.9152 70.3149 21.8835 70.3869 23.5603ZM76.9937 19.3567H74.5282V29.9129H77.1133V24.316C77.1133 22.2141 78.3106 21.1278 79.6031 21.1278C80.5845 21.1278 81.5901 21.7182 81.5901 23.2296V29.9366H84.1753V22.6392C84.1753 20.254 82.4519 19.0732 80.3686 19.0732C78.6928 19.0732 77.6161 19.8762 76.9937 20.9625V19.3567ZM90.9252 19.0732C93.415 19.0732 94.6842 20.3485 95.3777 22.0016L93.0561 22.8754C92.7691 21.7419 92.027 21.057 90.8055 21.057C89.0101 21.057 88.2204 22.781 88.2204 24.6466C88.2204 26.4886 88.9624 28.2126 90.8298 28.2126C92.0981 28.2126 92.6729 27.4805 93.0561 26.5123L95.4263 27.4096C94.5645 28.9683 93.2953 30.2199 90.8775 30.2199C87.6465 30.2199 85.5875 28.0001 85.5875 24.6466C85.5632 21.3168 87.5979 19.0732 90.9252 19.0732ZM117.329 30.2199C119.029 30.2199 120.058 29.5587 120.753 28.5668C120.753 29.1573 120.872 29.7476 120.968 29.9366H123.457C123.338 29.5351 123.218 29.1336 123.218 28.496V22.9226C123.218 20.3721 121.423 19.0732 118.838 19.0732C116.467 19.0732 114.433 20.1832 114.218 22.2614L116.707 22.6156C116.731 21.7182 117.378 20.9625 118.741 20.9625C120.082 20.9625 120.705 21.7419 120.705 22.8518V23.513C117.042 23.513 113.738 24.3632 113.738 27.1972C113.738 29.0628 115.175 30.2199 117.329 30.2199ZM120.705 25.1662V26.04C120.705 27.5042 119.388 28.3543 118.048 28.3543C117.018 28.3543 116.276 27.9056 116.276 27.0554C116.276 25.6621 118.048 25.1662 120.705 25.1662ZM127.766 19.3567H125.181V29.9366H127.766V19.3567ZM135.834 21.4584C135.547 21.3168 135.211 21.2459 134.9 21.2459C133.655 21.2459 132.29 22.3086 132.29 24.5994V29.9366H129.705V19.3567H132.123V21.0806C132.721 19.7345 133.822 19.0732 135.283 19.0732C135.714 19.0732 136.217 19.1441 136.648 19.3094L135.834 21.4584ZM53.1033 21.2459C53.4146 21.2459 53.7496 21.3168 54.0369 21.4584L54.8508 19.3094C54.4199 19.1441 53.9172 19.0732 53.4863 19.0732C52.0261 19.0732 50.9249 19.7345 50.3265 21.0806V19.3567H47.9087V29.9366H50.4941V24.5994C50.4941 22.3086 51.8585 21.2459 53.1033 21.2459ZM61.9604 21.4584C61.6731 21.3168 61.3381 21.2459 61.0269 21.2459C59.782 21.2459 58.4176 22.3086 58.4176 24.5994V29.9366H55.8322V19.3567H58.25V21.0806C58.8484 19.7345 59.9496 19.0732 61.4099 19.0732C61.8407 19.0732 62.3435 19.1441 62.7743 19.3094L61.9604 21.4584ZM16.7174 35.5808C16.7174 39.8718 13.1913 43.3504 8.84173 43.3504C4.4921 43.3504 0.966064 39.8718 0.966064 35.5808C0.966064 31.2897 4.4921 27.8112 8.84173 27.8112C13.1913 27.8112 16.7174 31.2897 16.7174 35.5808ZM17.6749 22.8518C17.6749 25.0038 15.9065 26.7484 13.7251 26.7484C11.5436 26.7484 9.77532 25.0038 9.77532 22.8518C9.77532 20.6997 11.5436 18.9551 13.7251 18.9551C15.9065 18.9551 17.6749 20.6997 17.6749 22.8518ZM16.5019 17.5146C17.586 17.5146 18.4648 16.6476 18.4648 15.578C18.4648 14.5085 17.586 13.6416 16.5019 13.6416C15.4178 13.6416 14.539 14.5085 14.539 15.578C14.539 16.6476 15.4178 17.5146 16.5019 17.5146Z" fill="#111111"/>
</svg>
