<svg width="41" height="40" viewBox="0 0 41 40" fill="none" xmlns="http://www.w3.org/2000/svg">
<g id="fi_1185894" clip-path="url(#clip0_124_1047)">
<path id="Vector" d="M37.633 15.6277C37.6553 15.4248 37.6666 15.2209 37.6666 15.018C37.6666 11.9217 35.1479 9.40216 32.0507 9.3988C31.1279 7.19818 29.6169 5.31189 27.6544 3.91785C25.4849 2.37701 22.9275 1.5625 20.2578 1.5625C17.2976 1.5625 14.4113 2.59766 12.1307 4.47723C10.0494 6.19263 8.55737 8.53394 7.88232 11.123C3.8302 11.2421 0.570312 14.574 0.570312 18.652C0.570312 22.8055 3.95105 26.1847 8.10693 26.1847H12.9141V29.1678L10.8306 31.2515C10.4598 31.0544 10.0375 30.9424 9.58917 30.9424C8.12433 30.9424 6.93292 32.1341 6.93292 33.5986C6.93292 35.0635 8.12433 36.2549 9.58917 36.2549C11.0537 36.2549 12.2454 35.0635 12.2454 33.5986C12.2454 33.15 12.1331 32.7271 11.9357 32.356L14.2477 30.0439C14.3942 29.8975 14.4766 29.6988 14.4766 29.4916V26.1847H19.8V33.2376C18.7158 33.5721 17.925 34.5837 17.925 35.7764C17.925 37.2412 19.1168 38.4326 20.5813 38.4326C22.0461 38.4326 23.2375 37.2412 23.2375 35.7764C23.2375 34.5837 22.4471 33.5721 21.3625 33.2376V26.1847H26.6641V29.4916C26.6641 29.6988 26.7465 29.8975 26.8929 30.0439L29.205 32.356C29.0075 32.7271 28.8952 33.15 28.8952 33.5986C28.8952 35.0635 30.0869 36.2549 31.5515 36.2549C33.0163 36.2549 34.2077 35.0635 34.2077 33.5986C34.2077 32.1341 33.0163 30.9424 31.5515 30.9424C31.1031 30.9424 30.6808 31.0544 30.31 31.2515L28.2266 29.1678V26.1844H34.9481C38.0483 26.1844 40.5703 23.6639 40.5703 20.5655C40.5703 18.4796 39.436 16.6037 37.633 15.6277ZM9.58917 34.6924C8.98584 34.6924 8.49542 34.2017 8.49542 33.5986C8.49542 32.9956 8.98584 32.5049 9.58917 32.5049C10.1922 32.5049 10.6829 32.9956 10.6829 33.5986C10.6829 34.2017 10.1922 34.6924 9.58917 34.6924ZM20.5813 36.8701C19.9783 36.8701 19.4875 36.3794 19.4875 35.7764C19.4875 35.1733 19.9783 34.6826 20.5813 34.6826C21.1846 34.6826 21.675 35.1733 21.675 35.7764C21.675 36.3794 21.1843 36.8701 20.5813 36.8701ZM32.6452 33.5986C32.6452 34.2017 32.1548 34.6924 31.5515 34.6924C30.9484 34.6924 30.4577 34.2017 30.4577 33.5986C30.4577 32.9956 30.9484 32.5049 31.5515 32.5049C32.1548 32.5049 32.6452 32.9956 32.6452 33.5986ZM34.9481 24.6222H28.2266V22.7344C28.2266 22.3029 27.8768 21.9531 27.4453 21.9531C27.0138 21.9531 26.6641 22.3029 26.6641 22.7344V24.6222H21.3625V16.4297C21.3625 15.9982 21.0128 15.6485 20.5813 15.6485C20.1501 15.6485 19.8 15.9982 19.8 16.4297V24.6222H14.4766V21.1911C14.4766 20.7596 14.1268 20.4099 13.6953 20.4099C13.2638 20.4099 12.9141 20.7596 12.9141 21.1911V24.6222H8.10693C4.81287 24.6222 2.13281 21.944 2.13281 18.652C2.13281 15.3604 4.81287 12.6822 8.10693 12.6822C8.18109 12.6822 8.25494 12.6846 8.3291 12.6874C8.36633 12.6889 8.40448 12.6907 8.44507 12.6929C9.78174 12.7686 11.0558 13.2886 12.0629 14.1788C12.2115 14.31 12.3962 14.3747 12.5802 14.3747C12.7963 14.3747 13.0114 14.2853 13.1658 14.1107C13.4515 13.7875 13.421 13.2938 13.0978 13.0081C12.0648 12.0947 10.8093 11.4893 9.46985 11.2436C10.8358 6.492 15.2429 3.125 20.2578 3.125C24.945 3.125 29.1802 6.07971 30.7964 10.4776C30.9197 10.8136 31.2567 11.0223 31.6119 10.9851C31.7608 10.9692 31.9064 10.9613 32.0446 10.9613C34.2831 10.9613 36.1044 12.7811 36.1044 15.018C36.1044 15.3152 36.0705 15.6155 36.0043 15.9106C35.9207 16.2836 36.119 16.6623 36.473 16.8057C38.0129 17.4301 39.0078 18.9059 39.0078 20.5655C39.0078 22.8024 37.1865 24.6222 34.9481 24.6222Z" fill="#3395D2"/>
<path id="Vector_2" d="M13.9719 15.1968C13.5764 15.3689 13.3948 15.8291 13.5669 16.225C13.5688 16.2289 13.5715 16.2353 13.5734 16.2393C13.7043 16.5274 13.9881 16.6974 14.285 16.6974C14.3931 16.6974 14.5029 16.6748 14.6079 16.6272C14.9982 16.4496 15.1722 15.9909 14.9988 15.5996C14.8261 15.2057 14.3668 15.0253 13.9719 15.1968Z" fill="#3395D2"/>
<path id="Vector_3" d="M27.4453 19.1758C27.2399 19.1758 27.0382 19.2594 26.8929 19.4047C26.7477 19.5499 26.6641 19.7516 26.6641 19.957C26.6641 20.1624 26.7477 20.3641 26.8929 20.5094C27.0382 20.6547 27.2399 20.7383 27.4453 20.7383C27.6507 20.7383 27.8524 20.6547 27.9977 20.5094C28.1429 20.3641 28.2266 20.1624 28.2266 19.957C28.2266 19.7516 28.1429 19.5499 27.9977 19.4047C27.8524 19.2594 27.6507 19.1758 27.4453 19.1758Z" fill="#3395D2"/>
</g>
<defs>
<clipPath id="clip0_124_1047">
<rect width="40" height="40" fill="white" transform="translate(0.570312)"/>
</clipPath>
</defs>
</svg>
