<svg width="41" height="40" viewBox="0 0 41 40" fill="none" xmlns="http://www.w3.org/2000/svg">
<g id="fi_3055898" clip-path="url(#clip0_124_1074)">
<g id="XMLID_1019_">
<g id="XMLID_284_">
<path id="XMLID_287_" d="M36.8224 6.76232C30.8955 6.74631 25.3199 4.426 21.1227 0.228809C20.8177 -0.0762695 20.323 -0.0762695 20.0178 0.228809C15.8207 4.426 10.2452 6.74631 4.3182 6.76232C3.88758 6.7635 3.53906 7.11295 3.53906 7.54357V19.8813C3.53906 24.6776 5.23844 29.3413 8.32406 33.0133C11.4098 36.6852 15.7111 39.1623 20.4357 39.9883C20.4802 39.9962 20.5252 40 20.5702 40C20.6152 40 20.6602 39.9961 20.7048 39.9883C25.4295 39.1623 29.7308 36.6852 32.8164 33.0133C35.9022 29.3413 37.6016 24.6776 37.6016 19.8813V7.54357C37.6016 7.11295 37.253 6.7635 36.8224 6.76232ZM36.0391 19.8813C36.0391 29.0142 29.5423 36.7912 20.5703 38.4251C11.5984 36.7912 5.10156 29.0143 5.10156 19.8813V8.31029C10.897 8.1092 16.3373 5.84397 20.5703 1.86904C24.8033 5.84397 30.2437 8.1092 36.0391 8.31029V19.8813Z" fill="#3395D2"/>
<path id="XMLID_288_" d="M20.0939 5.14371C16.5626 7.86121 12.367 9.62777 7.9607 10.2524C7.57539 10.3069 7.28906 10.6368 7.28906 11.0258V19.8814C7.28906 22.6212 7.96711 25.3387 9.25 27.7402C9.45336 28.1207 9.92656 28.2645 10.3072 28.0611C10.6877 27.8578 10.8315 27.3845 10.6281 27.0039C9.46586 24.8282 8.85156 22.3653 8.85156 19.8814V11.6956C13.0829 10.9875 17.1098 9.28503 20.5703 6.74043C24.0308 9.28503 28.0577 10.9875 32.2891 11.6956V19.8814C32.2891 26.9918 27.4788 33.0193 20.5703 34.5979C18.5311 34.1318 16.6483 33.2684 14.9714 32.03C14.6242 31.7737 14.1352 31.8473 13.8788 32.1944C13.6225 32.5415 13.6961 33.0307 14.0432 33.287C15.9441 34.6907 18.0845 35.658 20.4045 36.1618C20.4591 36.1736 20.5148 36.1796 20.5703 36.1796C20.6259 36.1796 20.6815 36.1736 20.7361 36.1618C24.4373 35.3581 27.7838 33.2958 30.1587 30.3548C32.5402 27.4061 33.8516 23.6865 33.8516 19.8814V11.0258C33.8516 10.6368 33.5652 10.3069 33.1799 10.2523C28.7737 9.62769 24.5781 7.86121 21.0467 5.14363C20.7659 4.92753 20.3747 4.92753 20.0939 5.14371Z" fill="#3395D2"/>
<path id="XMLID_291_" d="M20.5703 26.704C22.0973 26.704 23.3397 25.4617 23.3397 23.9347V19.8964C23.8735 19.2534 24.1641 18.4518 24.1641 17.6056C24.1641 15.624 22.5519 14.0118 20.5703 14.0118C18.5888 14.0118 16.9766 15.624 16.9766 17.6056C16.9766 18.4518 17.267 19.2533 17.8009 19.8964V23.9347C17.8009 25.4617 19.0433 26.704 20.5703 26.704ZM20.5703 15.5743C21.6903 15.5743 22.6016 16.4855 22.6016 17.6056C22.6016 18.1483 22.3901 18.6586 22.0062 19.0423C21.8595 19.1888 21.7772 19.3876 21.7772 19.5949V23.9347C21.7772 24.6001 21.2358 25.1415 20.5703 25.1415C19.9048 25.1415 19.3634 24.6001 19.3634 23.9347V19.5949C19.3634 19.3876 19.281 19.1889 19.1344 19.0423C18.7505 18.6586 18.539 18.1483 18.539 17.6056C18.5391 16.4855 19.4503 15.5743 20.5703 15.5743Z" fill="#3395D2"/>
<path id="XMLID_292_" d="M11.9297 29.4883C11.7234 29.4883 11.5227 29.5719 11.3773 29.7172C11.232 29.8625 11.1484 30.0641 11.1484 30.2695C11.1484 30.475 11.232 30.6766 11.3773 30.8219C11.5227 30.9672 11.7242 31.0508 11.9297 31.0508C12.1352 31.0508 12.3367 30.9672 12.482 30.8219C12.6273 30.6766 12.7109 30.475 12.7109 30.2695C12.7109 30.0641 12.6273 29.8625 12.482 29.7172C12.3367 29.5719 12.1352 29.4883 11.9297 29.4883Z" fill="#3395D2"/>
</g>
</g>
</g>
<defs>
<clipPath id="clip0_124_1074">
<rect width="40" height="40" fill="white" transform="translate(0.570312)"/>
</clipPath>
</defs>
</svg>
