<svg width="41" height="41" viewBox="0 0 41 41" fill="none" xmlns="http://www.w3.org/2000/svg">
<g id="fi_3854717" clip-path="url(#clip0_124_1010)">
<g id="Group">
<path id="Vector" d="M37.942 17.9424H34.4336C34.0022 17.9424 33.6523 18.2921 33.6523 18.7236C33.6523 19.1551 34.0022 19.5049 34.4336 19.5049H37.942C38.3734 19.5049 38.7233 19.1551 38.7233 18.7236C38.7233 18.2921 38.3735 17.9424 37.942 17.9424Z" fill="#3395D2"/>
<path id="Vector_2" d="M20.5762 5.64711C21.0076 5.64711 21.3574 5.29734 21.3574 4.86586V1.35742C21.3574 0.925938 21.0076 0.576172 20.5762 0.576172C20.1447 0.576172 19.7949 0.925938 19.7949 1.35742V4.86586C19.7949 5.29734 20.1447 5.64711 20.5762 5.64711Z" fill="#3395D2"/>
<path id="Vector_3" d="M10.2249 9.47719C10.3775 9.62977 10.5774 9.70602 10.7773 9.70602C10.9772 9.70602 11.1772 9.62977 11.3297 9.47719C11.6348 9.17211 11.6348 8.67742 11.3297 8.37227L8.84887 5.89141C8.54379 5.58633 8.0491 5.58633 7.74395 5.89141C7.43887 6.19648 7.43887 6.69117 7.74395 6.99633L10.2249 9.47719Z" fill="#3395D2"/>
<path id="Vector_4" d="M6.7184 17.9424H3.20996C2.77848 17.9424 2.42871 18.2921 2.42871 18.7236C2.42871 19.1551 2.77848 19.5049 3.20996 19.5049H6.7184C7.14988 19.5049 7.49965 19.1551 7.49965 18.7236C7.49965 18.2921 7.14988 17.9424 6.7184 17.9424Z" fill="#3395D2"/>
<path id="Vector_5" d="M10.2248 27.97L7.74395 30.4509C7.43887 30.756 7.43887 31.2506 7.74395 31.5558C7.89652 31.7084 8.09645 31.7846 8.29637 31.7846C8.49629 31.7846 8.69629 31.7084 8.84879 31.5558L11.3296 29.0749C11.6347 28.7699 11.6347 28.2752 11.3296 27.97C11.0246 27.6649 10.53 27.6649 10.2248 27.97Z" fill="#3395D2"/>
<path id="Vector_6" d="M30.9275 27.97C30.6223 27.6649 30.1278 27.6649 29.8226 27.97C29.5175 28.2751 29.5175 28.7698 29.8226 29.0749L32.3034 31.5558C32.456 31.7084 32.6559 31.7846 32.8558 31.7846C33.0558 31.7846 33.2557 31.7084 33.4083 31.5558C33.7133 31.2507 33.7133 30.756 33.4083 30.4509L30.9275 27.97Z" fill="#3395D2"/>
<path id="Vector_7" d="M32.3034 5.89146L29.8226 8.37232C29.5175 8.6774 29.5175 9.17209 29.8226 9.47725C29.9751 9.62982 30.1751 9.70607 30.375 9.70607C30.5749 9.70607 30.7748 9.62982 30.9274 9.47725L33.4083 6.99639C33.7133 6.69131 33.7133 6.19662 33.4083 5.89146C33.1032 5.58631 32.6087 5.58631 32.3034 5.89146Z" fill="#3395D2"/>
<path id="Vector_8" d="M28.7251 26.3041C30.6476 24.2387 31.7063 21.5465 31.7063 18.7235C31.7063 15.6921 30.5094 12.8584 28.3359 10.7444C26.1634 8.63109 23.2965 7.51359 20.2606 7.59741C14.219 7.7646 9.46836 12.6328 9.44539 18.6804C9.43461 21.5087 10.4863 24.2086 12.4065 26.2826C13.5277 27.4936 14.1452 29.0454 14.1452 30.6446L14.0998 35.3775C14.0947 35.919 14.3016 36.4291 14.6827 36.8138C15.0638 37.1986 15.5719 37.4105 16.1134 37.4105H16.7067C17.0704 39.2138 18.667 40.5762 20.5759 40.5762C22.4848 40.5762 24.0813 39.2138 24.4448 37.4104H25.038C25.5796 37.4104 26.0877 37.1984 26.4688 36.8136C26.8498 36.4287 27.0567 35.9186 27.0515 35.377L27.0063 30.7618C27.0063 29.078 27.6167 27.4949 28.7251 26.3041ZM11.008 18.6863C11.0277 13.4877 15.111 9.30296 20.3039 9.15929C20.3955 9.15679 20.4866 9.15554 20.5778 9.15554C23.0854 9.15554 25.4445 10.1116 27.2465 11.8644C29.1148 13.6817 30.1438 16.1176 30.1438 18.7235C30.1438 21.1501 29.2338 23.4643 27.5813 25.2396C26.5379 26.3606 25.8497 27.757 25.5766 29.2751H23.7009C23.2695 29.2751 22.9196 29.6249 22.9196 30.0564C22.9196 30.4879 23.2695 30.8376 23.7009 30.8376H25.4445L25.4614 32.5616H15.6895L15.7061 30.8376H17.4509C17.8823 30.8376 18.2321 30.4879 18.2321 30.0564C18.2321 29.6249 17.8823 29.2751 17.4509 29.2751H15.5855C15.3186 27.7787 14.6202 26.3736 13.5531 25.2211C11.9027 23.4383 10.9988 21.1176 11.008 18.6863ZM20.5759 39.0137C19.5347 39.0137 18.6477 38.3426 18.3235 37.4104H22.8283C22.504 38.3426 21.6171 39.0137 20.5759 39.0137ZM25.3585 35.7143C25.2731 35.8005 25.1593 35.848 25.038 35.848H16.1135C15.9922 35.848 15.8784 35.8005 15.7931 35.7143C15.7077 35.628 15.6613 35.5138 15.6624 35.3924L15.6746 34.1241H25.4766L25.4891 35.3924C25.4902 35.5137 25.4438 35.628 25.3585 35.7143Z" fill="#3395D2"/>
<path id="Vector_9" d="M20.5762 30.8376C21.0076 30.8376 21.3574 30.4879 21.3574 30.0564C21.3574 29.6249 21.0076 29.2751 20.5762 29.2751C20.1447 29.2751 19.7949 29.6249 19.7949 30.0564C19.7949 30.4879 20.1447 30.8376 20.5762 30.8376Z" fill="#3395D2"/>
</g>
</g>
<defs>
<clipPath id="clip0_124_1010">
<rect width="40" height="40" fill="white" transform="translate(0.576172 0.576172)"/>
</clipPath>
</defs>
</svg>
