<svg width="41" height="41" viewBox="0 0 41 41" fill="none" xmlns="http://www.w3.org/2000/svg">
<g id="fi_4937029" clip-path="url(#clip0_124_1026)">
<g id="Group">
<path id="Vector" d="M15.6518 19.8151C16.4175 19.8151 17.196 19.4553 17.7311 18.9099C18.3046 18.3253 18.5832 17.4912 18.4759 16.6791C18.4118 16.1942 18.2135 15.7304 17.907 15.3492L16.4365 13.5203L19.6762 13.4289L21.8673 17.7795C21.8693 17.7834 21.8713 17.7873 21.8733 17.7912C22.3173 18.637 23.1867 19.1624 24.1423 19.1624C24.5535 19.1624 24.9635 19.0615 25.3285 18.8703C26.4452 18.2846 26.95 16.9846 26.5779 15.8228L26.9928 15.9831C28.1592 16.4336 29.5007 16.0001 30.1828 14.9521C30.6006 14.3102 30.7217 13.5191 30.5149 12.7815C30.3082 12.044 29.7935 11.431 29.1028 11.0999L21.3061 7.36128C21.2461 7.33253 21.1828 7.31159 21.1175 7.29886L3.33004 3.83081C2.93097 3.75276 2.53879 3.9937 2.42738 4.38472L0.606286 10.7807C0.48949 11.1908 0.722536 11.619 1.13043 11.7436L5.20449 12.9882C5.38004 13.3062 5.69527 13.7875 6.19433 14.2591C6.90511 14.9308 8.12668 15.7003 9.98386 15.6774L13.7668 19.0372C14.2846 19.5496 14.9643 19.8152 15.6518 19.8151ZM25.0057 16.1103C25.0107 16.121 25.0158 16.1314 25.0212 16.1417C25.2753 16.6271 25.0869 17.2292 24.6018 17.4838C24.4583 17.5589 24.3038 17.597 24.1424 17.597C23.7725 17.597 23.4357 17.3947 23.2622 17.0687L21.6822 13.9316L24.4946 15.0181L25.0057 16.1103ZM10.2207 14.1024C7.43933 14.2738 6.51933 12.1348 6.48355 12.0487C6.39566 11.8279 6.21222 11.6591 5.98496 11.5896L2.3223 10.4707L3.73621 5.50495L20.7197 8.81628L28.426 12.5116C28.7146 12.65 28.9211 12.896 29.0075 13.2042C29.0939 13.5124 29.0453 13.8299 28.8707 14.0982C28.5899 14.5297 28.0372 14.7082 27.557 14.5227L20.7505 11.8932C20.6536 11.8558 20.5504 11.838 20.4464 11.841L14.8168 12C14.5196 12.0085 14.2528 12.1844 14.1282 12.4543C14.0035 12.7242 14.0425 13.0414 14.2288 13.273L16.6871 16.3303C17.1182 16.8665 16.9512 17.6441 16.3786 17.9967C16.1535 18.1353 15.9303 18.2468 15.6585 18.2482C15.3211 18.2499 15.0671 18.0985 14.8236 17.882L10.7889 14.2985C10.6451 14.1708 10.2368 14.1014 10.2207 14.1024Z" fill="#3395D2"/>
<path id="Vector_2" d="M40.0218 29.4096L35.9478 28.165C35.7722 27.847 35.457 27.3657 34.9579 26.8941C34.2472 26.2225 33.0275 25.4541 31.1684 25.4758L27.3855 22.116C26.604 21.3427 25.4002 21.1229 24.3975 21.5765C23.4503 22.005 22.7436 22.8562 22.6612 23.9144C22.6086 24.5911 22.82 25.2751 23.2453 25.804L24.7158 27.6329L21.4761 27.7244L19.285 23.3737C19.283 23.3698 19.281 23.3659 19.279 23.362C18.835 22.5162 17.9656 21.9908 17.01 21.9908C16.5988 21.9908 16.1888 22.0917 15.8238 22.2829C14.7071 22.8686 14.2022 24.1687 14.5743 25.3304L14.1595 25.1701C12.9931 24.7195 11.6515 25.1531 10.9695 26.2011C10.5517 26.843 10.4306 27.6341 10.6374 28.3717C10.8441 29.1092 11.3588 29.7222 12.0495 30.0533L19.8461 33.7919C19.9061 33.8207 19.9695 33.8417 20.0348 33.8544L25.4976 34.9194C25.9222 35.0026 26.333 34.7253 26.4158 34.3009C26.4985 33.8766 26.2215 33.4655 25.7972 33.3828L20.4328 32.3369L12.7265 28.6416C12.4379 28.5032 12.2314 28.2573 12.145 27.949C12.0586 27.6408 12.1072 27.3233 12.2818 27.0551C12.5626 26.6235 13.1151 26.445 13.5955 26.6305L20.402 29.26C20.499 29.2974 20.6017 29.3149 20.7061 29.3123L26.3358 29.1532C26.6329 29.1448 26.8997 28.9688 27.0243 28.6989C27.149 28.429 27.11 28.1119 26.9237 27.8802L24.4654 24.8229C24.0343 24.2867 24.2013 23.5091 24.774 23.1565C24.999 23.0179 25.2221 22.9064 25.494 22.905C25.8314 22.9033 26.0853 23.0546 26.3289 23.2712L30.3636 26.8548C30.5193 26.9931 30.7238 27.0633 30.9317 27.0508C33.7124 26.8787 34.633 29.0183 34.6688 29.1044C34.7567 29.3252 34.9401 29.4941 35.1674 29.5635L38.8301 30.6824L37.4162 35.6482L32.693 34.7273C32.2686 34.6445 31.8576 34.9215 31.775 35.3458C31.6922 35.7701 31.9691 36.1812 32.3935 36.2639L37.8225 37.3224C38.2165 37.3994 38.6152 37.1544 38.7251 36.7685L40.5461 30.3726C40.6629 29.9623 40.4297 29.5342 40.0218 29.4096ZM16.1467 25.0428C16.1417 25.0323 16.1365 25.0217 16.1311 25.0114C15.8771 24.526 16.0654 23.9239 16.5506 23.6694C16.694 23.5943 16.8486 23.5562 17.01 23.5562C17.3799 23.5562 17.7166 23.7584 17.8901 24.0844L19.4701 27.2216L16.6577 26.1351L16.1467 25.0428Z" fill="#3395D2"/>
<path id="Vector_3" d="M29.1881 34.0612C28.762 33.9937 28.3618 34.2845 28.2944 34.7106C28.227 35.1367 28.5177 35.5369 28.9438 35.6043C29.3699 35.6717 29.77 35.381 29.8374 34.9549C29.9049 34.5288 29.6141 34.1287 29.1881 34.0612Z" fill="#3395D2"/>
</g>
</g>
<defs>
<clipPath id="clip0_124_1026">
<rect width="40" height="40" fill="white" transform="translate(0.576172 0.576172)"/>
</clipPath>
</defs>
</svg>
