<svg width="41" height="40" viewBox="0 0 41 40" fill="none" xmlns="http://www.w3.org/2000/svg">
<g id="fi_5578782" clip-path="url(#clip0_124_1086)">
<g id="Group">
<g id="Group_2">
<path id="Vector" d="M16.0781 17.6562C16.5095 17.6562 16.8594 17.3065 16.8594 16.875C16.8594 16.4435 16.5095 16.0938 16.0781 16.0938H13.3438C12.9123 16.0938 12.5625 16.4435 12.5625 16.875V23.125C12.5625 23.5565 12.9123 23.9062 13.3438 23.9062H16.0781C16.5095 23.9062 16.8594 23.5565 16.8594 23.125C16.8594 22.6935 16.5095 22.3438 16.0781 22.3438H14.125V20.7812H15.2676C15.699 20.7812 16.0488 20.4315 16.0488 20C16.0488 19.5685 15.699 19.2188 15.2676 19.2188H14.125V17.6562H16.0781Z" fill="#3395D2"/>
<path id="Vector_2" d="M25.4531 23.1251V20.7812H26.2344C27.5267 20.7812 28.5781 19.7298 28.5781 18.4375C28.5781 17.1452 27.5267 16.0938 26.2344 16.0938H24.6719C24.2405 16.0938 23.8906 16.4435 23.8906 16.875V23.1251C23.8906 23.5566 24.2405 23.9063 24.6719 23.9063C25.1033 23.9063 25.4531 23.5566 25.4531 23.1251ZM25.4531 17.6562H26.2344C26.6652 17.6562 27.0156 18.0067 27.0156 18.4375C27.0156 18.8683 26.6652 19.2188 26.2344 19.2188H25.4531V17.6562Z" fill="#3395D2"/>
<path id="Vector_3" d="M22.6405 18.4375C22.6405 17.1452 21.5892 16.0938 20.2969 16.0938H18.7344C18.303 16.0938 17.9531 16.4435 17.9531 16.875V23.1251C17.9531 23.5566 18.303 23.9063 18.7344 23.9063C19.1658 23.9063 19.5156 23.5566 19.5156 23.1251V20.7812H19.814L21.1605 23.4745C21.2973 23.7482 21.5732 23.9066 21.8598 23.9066C21.9773 23.9066 22.0964 23.88 22.2086 23.8239C22.5945 23.6309 22.7509 23.1616 22.558 22.7757L21.4179 20.4953C22.1459 20.0971 22.6405 19.324 22.6405 18.4375ZM19.5156 17.6562H20.2969C20.7277 17.6562 21.078 18.0067 21.078 18.4375C21.078 18.8652 20.7327 19.2135 20.3064 19.2187C20.2976 19.2186 20.2887 19.2186 20.28 19.2188H19.5157L19.5156 17.6562Z" fill="#3395D2"/>
<path id="Vector_4" d="M20.5703 7.50012C18.545 7.50012 16.5323 7.99668 14.75 8.93614C14.3683 9.13739 14.222 9.60989 14.4231 9.99153C14.6244 10.3732 15.0968 10.5197 15.4786 10.3184C17.0372 9.49684 18.7979 9.06262 20.5703 9.06262C26.6012 9.06262 31.5078 13.9692 31.5078 20.0001C31.5078 26.0311 26.6012 30.9376 20.5703 30.9376C14.5394 30.9376 9.63281 26.0311 9.63281 20.0001C9.63281 18.2273 10.0672 16.4665 10.8888 14.908C11.0901 14.5264 10.9438 14.0538 10.5621 13.8525C10.1802 13.6512 9.70781 13.7976 9.50664 14.1793C8.56703 15.9615 8.07031 17.9743 8.07031 20C8.07031 26.8925 13.6777 32.5 20.5703 32.5C27.4629 32.5 33.0703 26.8925 33.0703 20C33.0703 13.1075 27.4629 7.50012 20.5703 7.50012Z" fill="#3395D2"/>
<path id="Vector_5" d="M39.1364 16.495L37.3338 16.1946C36.9039 14.2892 36.1591 12.4916 35.1145 10.8377L36.177 9.35022C36.6744 8.65365 36.6402 7.78553 36.0937 7.23905L33.3316 4.47687C32.7852 3.9303 31.9169 3.89585 31.2203 4.39358L29.7328 5.45585C28.0793 4.41116 26.2817 3.66648 24.3758 3.23663L24.0753 1.4339C23.9346 0.589686 23.2964 0 22.5235 0H18.6172C17.8442 0 17.2061 0.589686 17.0653 1.43398L16.7648 3.23663C14.8589 3.66648 13.0614 4.41116 11.4079 5.45585L9.92053 4.39343C9.22412 3.89585 8.35584 3.93007 7.80928 4.47671L5.04718 7.23889C4.50046 7.78545 4.46616 8.65365 4.96382 9.35022L6.02624 10.8377C4.98148 12.4918 4.23687 14.2891 3.80702 16.1946L2.00445 16.495C1.16 16.6357 0.570312 17.2738 0.570312 18.0468V21.9532C0.570312 22.7261 1.16 23.3643 2.00422 23.505L3.80687 23.8054C4.23671 25.711 4.98132 27.5083 6.02608 29.1623L4.96366 30.6497C4.46609 31.3463 4.50038 32.2145 5.04694 32.761L7.80905 35.5232C8.35553 36.0699 9.22373 36.1041 9.92029 35.6065L11.4077 34.5441C13.0611 35.5888 14.8587 36.3334 16.7646 36.7633L17.065 38.566C17.2058 39.4103 17.844 39.9999 18.6169 39.9999H22.5232C23.2962 39.9999 23.9343 39.4102 24.075 38.5659L24.3755 36.7633C26.2814 36.3334 28.079 35.5888 29.7324 34.5441L31.2199 35.6065C31.9165 36.1041 32.7847 36.0696 33.3311 35.5232L36.0932 32.761C36.6397 32.2145 36.674 31.3463 36.1765 30.6497L35.114 29.1623C36.1587 27.5085 36.9034 25.7108 37.3333 23.8054L39.1359 23.505C39.9802 23.3642 40.5698 22.726 40.5698 21.9532V18.0468C40.5703 17.2739 39.9806 16.6357 39.1364 16.495ZM39.0078 21.9193C38.9855 21.9332 38.9432 21.9532 38.8795 21.9638L36.5499 22.3521C36.2278 22.4057 35.9731 22.6542 35.9113 22.9748C35.5113 25.0496 34.7072 26.9907 33.5211 28.7442C33.3381 29.0146 33.3427 29.3703 33.5325 29.636L34.9052 31.5579C34.9429 31.6106 34.9588 31.6546 34.9647 31.6802L32.2505 34.3945C32.2249 34.3885 32.1808 34.3727 32.1283 34.3351L30.2063 32.9623C29.9406 32.7724 29.5849 32.768 29.3145 32.9509C27.5616 34.1368 25.6205 34.9409 23.545 35.3409C23.2244 35.4027 22.976 35.6575 22.9222 35.9796L22.5339 38.3091C22.5233 38.3728 22.5034 38.4152 22.4896 38.4375H18.6509C18.637 38.4152 18.6171 38.3729 18.6065 38.3091L18.2182 35.9796C18.1645 35.6574 17.9161 35.4027 17.5954 35.3409C15.5201 34.9409 13.579 34.1368 11.8261 32.9509C11.5557 32.768 11.1999 32.7724 10.9342 32.9623L9.01217 34.3351C8.95959 34.3727 8.91561 34.3885 8.89006 34.3945L6.17577 31.6801C6.18171 31.6545 6.19757 31.6105 6.23522 31.5579L7.60795 29.6359C7.79772 29.3703 7.80225 29.0146 7.61936 28.7441C6.43327 26.9905 5.62913 25.0494 5.22929 22.9746C5.16749 22.654 4.91273 22.4056 4.59062 22.3519L2.26117 21.9636C2.19742 21.953 2.15507 21.9331 2.13273 21.9192V18.0805C2.155 18.0667 2.19734 18.0468 2.26117 18.0361L4.59062 17.6479C4.91273 17.5942 5.16749 17.3457 5.22929 17.0251C5.62913 14.9504 6.43327 13.0093 7.61936 11.2557C7.80233 10.9852 7.79772 10.6296 7.60795 10.3639L6.23515 8.44186C6.19765 8.38928 6.18171 8.3453 6.17577 8.31975L8.89006 5.60538C8.91561 5.61132 8.95967 5.62718 9.01217 5.66475L10.9342 7.03756C11.2 7.22741 11.5558 7.23186 11.8261 7.04897C13.579 5.86303 15.52 5.0589 17.5954 4.6589C17.9161 4.5971 18.1645 4.34234 18.2182 4.02023L18.6065 1.69078C18.6172 1.62695 18.6371 1.58468 18.6509 1.56234H22.4896C22.5035 1.58468 22.5234 1.62695 22.5339 1.6907L22.9222 4.02023C22.976 4.34241 23.2243 4.5971 23.545 4.6589C25.6204 5.0589 27.5616 5.86303 29.3145 7.04897C29.5849 7.23186 29.9406 7.22749 30.2063 7.03756L32.1282 5.66475C32.1809 5.62718 32.2249 5.61132 32.2505 5.60538L34.9647 8.31967C34.9588 8.3453 34.943 8.38928 34.9053 8.44186L33.5325 10.3638C33.3427 10.6295 33.3382 10.9852 33.5211 11.2556C34.7072 13.0092 35.5113 14.9503 35.9113 17.025C35.9731 17.3457 36.2278 17.5941 36.5499 17.6478L38.8795 18.0361C38.9432 18.0467 38.9855 18.0666 39.0078 18.0804V21.9193Z" fill="#3395D2"/>
<path id="Vector_6" d="M12.2842 12.4946C12.4843 12.4946 12.6844 12.4182 12.8369 12.2657C13.142 11.9606 13.142 11.4659 12.8369 11.1608C12.5318 10.8557 12.0372 10.8557 11.732 11.1608L11.7316 11.1612C11.4265 11.4663 11.4268 11.9607 11.7319 12.2658C11.8844 12.4183 12.0843 12.4946 12.2842 12.4946Z" fill="#3395D2"/>
</g>
</g>
</g>
<defs>
<clipPath id="clip0_124_1086">
<rect width="40" height="40" fill="white" transform="translate(0.570312)"/>
</clipPath>
</defs>
</svg>
