<svg width="41" height="41" viewBox="0 0 41 41" fill="none" xmlns="http://www.w3.org/2000/svg">
<g id="fi_3511243" clip-path="url(#clip0_124_998)">
<g id="Group">
<g id="Group_2">
<g id="Group_3">
<path id="Vector" d="M35.5059 24.0836H31.512C31.6102 23.7115 31.6501 23.3234 31.6274 22.9335C31.521 21.1053 30.0636 19.6317 28.2373 19.506C26.1544 19.3629 24.327 21.0578 24.327 23.1505C24.327 23.4695 24.3675 23.7823 24.4466 24.0835L5.64602 24.0836C5.2146 24.0836 4.86475 24.4334 4.86475 24.8649V37.6728C4.86475 39.2736 6.16713 40.5761 7.76797 40.5761L24.4657 40.5759C24.8971 40.5759 25.247 40.2261 25.247 39.7946C25.247 39.3632 24.8971 39.0134 24.4657 39.0134H21.3573V34.24C21.3573 33.575 20.5428 33.2156 20.0513 33.6608C19.6691 34.0071 19.1645 34.2017 18.6486 34.2017C17.4966 34.2017 16.5311 33.2089 16.5587 32.059C16.586 30.9286 17.5693 29.9943 18.6989 30.0213C19.235 30.0337 19.6791 30.2616 20.0883 30.5895C20.59 30.9921 21.3574 30.6245 21.3574 29.9818V25.6461H25.6759C26.3051 25.6461 26.6793 24.9039 26.3024 24.398C26.0323 24.0354 25.8896 23.604 25.8896 23.1504C25.8896 21.9511 26.9353 20.9817 28.1301 21.0648C29.1738 21.1367 30.0068 21.979 30.0675 23.0242C30.0967 23.5244 29.9552 23.9995 29.6583 24.398C29.2817 24.9037 29.6553 25.6461 30.2849 25.6461H34.7248V37.6727C34.7248 38.4119 34.1234 39.0134 33.3841 39.0134H31.3693C30.9379 39.0134 30.588 39.3632 30.588 39.7946C30.588 40.2261 30.9379 40.5759 31.3693 40.5759H33.3841C34.985 40.5759 36.2873 39.2735 36.2873 37.6727V24.8649C36.2872 24.4334 35.9374 24.0836 35.5059 24.0836ZM19.7946 39.0136H7.76805C7.0288 39.0136 6.42738 38.4122 6.42738 37.6729V25.6462H19.7946V28.6405C19.373 28.5015 18.923 28.4415 18.4798 28.4615C16.5168 28.549 14.946 30.2443 14.9967 32.2038C15.044 34.2151 16.7799 35.8362 18.7878 35.7616C19.1293 35.7484 19.47 35.6887 19.7946 35.5815V39.0136Z" fill="#3395D2"/>
<path id="Vector_2" d="M12.2847 14.4046C11.9404 14.5779 11.623 14.8064 11.345 15.0843C9.92014 16.5092 9.92272 18.8304 11.3508 20.2586C12.7789 21.6867 15.1002 21.6892 16.5252 20.2644C16.8031 19.9864 17.0315 19.669 17.2049 19.3248L20.0234 22.1433C20.3243 22.444 20.8275 22.444 21.1284 22.1433L24.7345 18.5373C25.1803 18.0913 24.9177 17.3027 24.2948 17.2117C23.8475 17.1464 23.4415 16.9424 23.1206 16.6214C22.2716 15.7726 22.3275 14.3475 23.2312 13.5616C24.0203 12.875 25.2049 12.8825 25.9862 13.5789C26.3601 13.9122 26.596 14.348 26.6682 14.8393C26.7595 15.4614 27.5477 15.7241 27.9936 15.2782L31.6855 11.5864C31.986 11.2859 31.986 10.7822 31.6855 10.4815L22.629 1.42514H22.6289C21.497 0.293223 19.6551 0.293145 18.5231 1.42514L9.46661 10.4816C9.16152 10.7867 9.16152 11.2814 9.46661 11.5866L12.2847 14.4046ZM19.628 2.53002C20.1506 2.00726 21.0014 2.00726 21.5241 2.53002L30.0282 11.034L27.7561 13.306C27.5628 12.9741 27.317 12.6718 27.0259 12.4124C25.659 11.1943 23.5868 11.1815 22.2058 12.3827C20.6303 13.7533 20.535 16.2456 22.0159 17.7264C22.2415 17.952 22.4913 18.1447 22.7603 18.3016L20.576 20.486L17.3621 17.2721C16.8918 16.802 16.062 17.1247 16.0293 17.7861C16.0038 18.3046 15.7874 18.7923 15.4203 19.1594C14.6046 19.975 13.2745 19.9725 12.4558 19.1536C11.6368 18.3348 11.6342 17.0048 12.45 16.1891C12.8172 15.8219 13.3049 15.6058 13.8233 15.5807C14.4856 15.5486 14.8081 14.7181 14.3379 14.2478L11.124 11.0339L19.628 2.53002Z" fill="#3395D2"/>
<path id="Vector_3" d="M28.6739 39.4955C28.4051 38.8497 27.4522 38.8731 27.2172 39.5315C26.9784 40.2002 27.7213 40.8216 28.3376 40.4737C28.6776 40.2817 28.8216 39.8557 28.6739 39.4955Z" fill="#3395D2"/>
</g>
</g>
</g>
</g>
<defs>
<clipPath id="clip0_124_998">
<rect width="40" height="40" fill="white" transform="translate(0.576172 0.576172)"/>
</clipPath>
</defs>
</svg>
