<svg width="41" height="41" viewBox="0 0 41 41" fill="none" xmlns="http://www.w3.org/2000/svg">
<g id="fi_10444049" clip-path="url(#clip0_124_989)">
<g id="Group">
<path id="Vector" d="M38.0275 11.2076C38.0275 10.7903 37.803 10.4016 37.4415 10.1928L20.9666 0.680879C20.7249 0.54127 20.4271 0.54127 20.1854 0.680879L3.51514 10.3055C3.27342 10.445 3.12451 10.703 3.12451 10.9821V30.2312C3.12451 30.5103 3.27342 30.7682 3.51514 30.9078L19.9899 40.4195C20.1706 40.5239 20.3733 40.5761 20.5761 40.5761C20.7787 40.5761 20.9813 40.5239 21.1619 40.4195L37.4414 31.0206C37.8029 30.812 38.0275 30.4231 38.0275 30.0056V22.0263C38.0275 21.5949 37.6776 21.2451 37.2462 21.2451C36.8148 21.2451 36.465 21.5949 36.465 22.0263V24.3291L29.6904 28.0595C29.2733 27.6716 28.7148 27.4337 28.1017 27.4337C26.814 27.4337 25.7664 28.4813 25.7664 29.769C25.7664 31.0567 26.814 32.1043 28.1017 32.1043C29.3894 32.1043 30.437 31.0567 30.437 29.769C30.437 29.6589 30.4288 29.5508 30.414 29.4448L36.465 26.1128V29.7802L21.3051 38.5328V28.7723L27.2546 25.6838C27.7729 25.4147 28.0948 24.8848 28.0948 24.3009L28.0925 22.001L29.9349 21.0446C30.3504 21.4244 30.903 21.6564 31.5089 21.6564C32.7966 21.6564 33.8442 20.6088 33.8442 19.3211C33.8442 18.0334 32.7966 16.9858 31.5089 16.9858C30.2212 16.9858 29.1736 18.0334 29.1736 19.3211C29.1736 19.4383 29.1825 19.5534 29.1992 19.666L27.3726 20.6141C26.8543 20.8831 26.5322 21.4131 26.5322 21.9971L26.5345 24.2971L21.3051 27.0118V26.3288C21.3051 26.3278 21.3051 26.3269 21.3051 26.3259V20.1368L36.4649 12.2679V14.9075C36.4649 15.339 36.8147 15.6888 37.2462 15.6888C37.6776 15.6888 38.0274 15.3389 38.0274 14.9075V11.2076H38.0275ZM28.1017 30.5418C27.6756 30.5418 27.3289 30.1951 27.3289 29.769C27.3289 29.3429 27.6756 28.9962 28.1017 28.9962C28.5278 28.9962 28.8745 29.3429 28.8745 29.769C28.8745 30.1952 28.5278 30.5418 28.1017 30.5418ZM31.509 18.5483C31.9351 18.5483 32.2818 18.895 32.2818 19.3211C32.2818 19.7472 31.9351 20.0939 31.509 20.0939C31.0829 20.0939 30.7362 19.7472 30.7362 19.3211C30.7362 18.895 31.0829 18.5483 31.509 18.5483ZM20.576 2.25963L35.6206 10.9456L30.9456 13.3723C30.9095 13.3418 30.8705 13.3138 30.8279 13.2896L25.0829 10.0235C25.109 9.88393 25.1233 9.74025 25.1233 9.59322C25.1233 8.30549 24.0757 7.25791 22.7879 7.25791C21.5002 7.25791 20.4526 8.30549 20.4526 9.59322C20.4526 10.881 21.5002 11.9285 22.7879 11.9285C23.3626 11.9285 23.8892 11.7195 24.2965 11.3739L29.3073 14.2226L20.5248 18.7813L5.52764 10.9478L9.31092 8.76353L12.6589 10.5123C12.6526 10.5817 12.649 10.6518 12.649 10.7228C12.649 12.0106 13.6965 13.0581 14.9843 13.0581C16.272 13.0581 17.3196 12.0106 17.3196 10.7228C17.3196 9.4351 16.272 8.38752 14.9843 8.38752C14.3306 8.38752 13.7391 8.65783 13.3148 9.09205L10.9139 7.83799L20.576 2.25963ZM23.5608 9.59322C23.5608 10.0193 23.214 10.366 22.7879 10.366C22.3619 10.366 22.0151 10.0193 22.0151 9.59322C22.0151 9.16713 22.3619 8.82041 22.7879 8.82041C23.214 8.82041 23.5608 9.16713 23.5608 9.59322ZM14.9842 9.95002C15.4103 9.95002 15.757 10.2967 15.757 10.7228C15.757 11.1489 15.4103 11.4956 14.9842 11.4956C14.5581 11.4956 14.2114 11.1489 14.2114 10.7228C14.2114 10.2967 14.5581 9.95002 14.9842 9.95002ZM4.68701 26.3559L12.1443 30.251C12.1337 30.3407 12.1277 30.4319 12.1277 30.5245C12.1277 31.8122 13.1753 32.8598 14.463 32.8598C15.7508 32.8598 16.7983 31.8122 16.7983 30.5245C16.7983 29.2367 15.7508 28.1892 14.463 28.1892C13.8315 28.1892 13.2581 28.4415 12.8373 28.8503L4.68701 24.5931V12.2715L19.7426 20.1353V25.0493L11.5185 20.7537C11.5297 20.6613 11.5361 20.5675 11.5361 20.4722C11.5361 19.1845 10.4885 18.1369 9.20076 18.1369C7.91303 18.1369 6.86545 19.1845 6.86545 20.4722C6.86545 21.7599 7.91303 22.8075 9.20076 22.8075C9.82943 22.8075 10.4004 22.5574 10.8207 22.152L19.7426 26.8121V38.4725L4.68701 29.7802V26.3559ZM14.463 29.7517C14.8891 29.7517 15.2358 30.0985 15.2358 30.5245C15.2358 30.9506 14.8891 31.2974 14.463 31.2974C14.0369 31.2974 13.6902 30.9506 13.6902 30.5245C13.6902 30.0985 14.0369 29.7517 14.463 29.7517ZM9.97357 20.4723C9.97357 20.8984 9.62686 21.2451 9.20076 21.2451C8.77467 21.2451 8.42795 20.8984 8.42795 20.4723C8.42795 20.0462 8.77467 19.6995 9.20076 19.6995C9.62686 19.6995 9.97357 20.0462 9.97357 20.4723Z" fill="#3395D2"/>
<path id="Vector_2" d="M37.1924 19.2546C37.6239 19.2546 37.9736 18.9049 37.9736 18.4734C37.9736 18.0419 37.6239 17.6921 37.1924 17.6921C36.7609 17.6921 36.4111 18.0419 36.4111 18.4734C36.4111 18.9049 36.7609 19.2546 37.1924 19.2546Z" fill="#3395D2"/>
</g>
</g>
<defs>
<clipPath id="clip0_124_989">
<rect width="40" height="40" fill="white" transform="translate(0.576172 0.576172)"/>
</clipPath>
</defs>
</svg>
