<svg width="41" height="40" viewBox="0 0 41 40" fill="none" xmlns="http://www.w3.org/2000/svg">
<g id="fi_4298077" clip-path="url(#clip0_124_1056)">
<g id="Group">
<g id="Group_2">
<path id="Vector" d="M40.0558 36.6119L37.3587 32.5084L38.803 32.1129C39.6654 31.8767 39.8243 30.6779 39.0522 30.2256L34.995 27.8489V2.89149C34.995 1.29714 33.698 0 32.1036 0H3.80701C2.21266 0 0.915527 1.29714 0.915527 2.89149V29.3737C0.915527 30.9679 2.21259 32.265 3.80694 32.265H15.146C15.5775 32.265 15.9273 31.9152 15.9273 31.4837C15.9273 31.0522 15.5775 30.7024 15.146 30.7024H3.80694C3.0743 30.7024 2.47816 30.1063 2.47816 29.3737V6.99729H33.4324V26.9336L30.6741 25.3179C30.2848 25.0899 29.8811 24.9518 29.448 25.1974C29.088 25.4015 28.88 25.8046 28.9309 26.2198L29.4803 30.7024H21.9906C21.5591 30.7024 21.2093 31.0522 21.2093 31.4838C21.2093 31.9153 21.5591 32.2651 21.9906 32.2651H29.6719L30.1399 36.0831C30.2487 36.9704 31.4119 37.3016 31.9711 36.603L32.9072 35.4342L35.6042 39.5377C35.9128 40.0074 36.5633 40.1432 37.0344 39.8336L39.7601 38.0422C40.2359 37.7293 40.3685 37.0878 40.0558 36.6119ZM2.47816 2.89149C2.47816 2.15877 3.0743 1.56263 3.80701 1.56263H32.1036C32.8363 1.56263 33.4325 2.15877 33.4325 2.89149V5.43435H2.47816V2.89149ZM36.6189 38.2366L33.8124 33.9664C33.4333 33.3898 32.5752 33.3486 32.1432 33.8881L31.5377 34.6442L30.6123 27.0927L37.1769 30.938L36.2426 31.1939C35.5776 31.376 35.2725 32.179 35.6524 32.7572L38.4588 37.0274L36.6189 38.2366Z" fill="#3395D2"/>
<path id="Vector_2" d="M7.80085 17.023H13.0438C13.4753 17.023 13.8251 16.6732 13.8251 16.2417V11.0192C13.8251 10.5877 13.4753 10.2379 13.0438 10.2379H7.80085C7.36933 10.2379 7.01953 10.5877 7.01953 11.0192V16.2417C7.01953 16.6732 7.36933 17.023 7.80085 17.023ZM8.58216 11.8006H12.2625V15.4605H8.58216V11.8006Z" fill="#3395D2"/>
<path id="Vector_3" d="M17.8941 11.8005H28.1239C28.5554 11.8005 28.9052 11.4507 28.9052 11.0192C28.9052 10.5877 28.5554 10.2379 28.1239 10.2379H17.8941C17.4626 10.2379 17.1128 10.5877 17.1128 11.0192C17.1128 11.4507 17.4627 11.8005 17.8941 11.8005Z" fill="#3395D2"/>
<path id="Vector_4" d="M17.8941 16.7361H28.1239C28.5554 16.7361 28.9052 16.3863 28.9052 15.9548C28.9052 15.5233 28.5554 15.1735 28.1239 15.1735H17.8941C17.4626 15.1735 17.1128 15.5233 17.1128 15.9548C17.1128 16.3863 17.4627 16.7361 17.8941 16.7361Z" fill="#3395D2"/>
<path id="Vector_5" d="M7.80085 21.6718H28.124C28.5555 21.6718 28.9053 21.322 28.9053 20.8904C28.9053 20.4589 28.5555 20.1091 28.124 20.1091H7.80085C7.36933 20.1091 7.01953 20.4589 7.01953 20.8904C7.01953 21.322 7.36933 21.6718 7.80085 21.6718Z" fill="#3395D2"/>
<path id="Vector_6" d="M7.80085 26.6072H24.6823C25.1138 26.6072 25.4636 26.2574 25.4636 25.8259C25.4636 25.3943 25.1138 25.0446 24.6823 25.0446H7.80085C7.36933 25.0446 7.01953 25.3943 7.01953 25.8259C7.01953 26.2574 7.36933 26.6072 7.80085 26.6072Z" fill="#3395D2"/>
<path id="Vector_7" d="M5.48411 3.26818C5.20815 2.59445 4.20439 2.65938 4.01063 3.3585C3.82334 4.0341 4.59192 4.59969 5.18236 4.22536C5.49809 4.02519 5.62802 3.61336 5.48411 3.26818Z" fill="#3395D2"/>
<path id="Vector_8" d="M8.34683 3.26818C8.18541 2.87416 7.71889 2.6829 7.32643 2.84549C6.9332 3.00831 6.74084 3.47265 6.90374 3.86589C7.06665 4.2592 7.53129 4.45078 7.92414 4.28858C8.31683 4.12637 8.51052 3.66071 8.34683 3.26818Z" fill="#3395D2"/>
<path id="Vector_9" d="M11.215 3.26818C11.0536 2.87416 10.5871 2.6829 10.1946 2.84549C9.80136 3.00831 9.609 3.47265 9.77191 3.86589C9.93481 4.2592 10.3995 4.45078 10.7923 4.28858C11.185 4.12637 11.3787 3.66071 11.215 3.26818Z" fill="#3395D2"/>
<path id="Vector_10" d="M19.3227 31.1846C19.1589 30.7915 18.696 30.5999 18.3023 30.7627C17.9089 30.9254 17.7173 31.3891 17.8796 31.7823C18.042 32.1756 18.5072 32.368 18.9 32.205C19.2944 32.0413 19.4844 31.579 19.3227 31.1846Z" fill="#3395D2"/>
</g>
</g>
</g>
<defs>
<clipPath id="clip0_124_1056">
<rect width="40" height="40" fill="white" transform="translate(0.570312)"/>
</clipPath>
</defs>
</svg>
