<svg width="46" height="36" viewBox="0 0 46 36" fill="none" xmlns="http://www.w3.org/2000/svg">
<path d="M8.59032 17.7604L20.4385 5.91219C21.7319 4.61883 21.7319 2.52375 20.4385 1.23418C19.1451 -0.0591786 17.0501 -0.0591786 15.7605 1.23418L1.78318 15.2115C1.08356 15.9111 0.762113 16.8452 0.822621 17.7642C0.765895 18.6793 1.08356 19.6172 1.78318 20.3168L15.7605 34.2941C17.0538 35.5875 19.1489 35.5875 20.4385 34.2941C21.7319 33.0008 21.7319 30.9057 20.4385 29.6161L8.59032 17.7604Z" fill="#3395D2"/>
<path d="M37.6004 17.7604L25.7522 5.91219C24.4589 4.61883 24.4589 2.52375 25.7522 1.23418C27.0456 -0.0591786 29.1407 -0.0591786 30.4303 1.23418L44.4076 15.2115C45.1072 15.9111 45.4286 16.8452 45.3681 17.7642C45.4249 18.6793 45.1072 19.6172 44.4076 20.3168L30.4303 34.2941C29.1369 35.5875 27.0418 35.5875 25.7522 34.2941C24.4589 33.0008 24.4589 30.9057 25.7522 29.6161L37.6004 17.7604Z" fill="#3395D2"/>
</svg>
