<svg width="36" height="36" viewBox="0 0 36 36" fill="none" xmlns="http://www.w3.org/2000/svg">
<path d="M29.6769 9.40396L31.0228 12.5391C33.4231 11.6367 35.1299 9.31887 35.1299 6.60401C35.1299 3.10278 32.2913 0.26416 28.79 0.26416C25.2888 0.26416 22.4502 3.10278 22.4502 6.60401C22.4502 7.49092 22.6332 8.33657 22.9633 9.10488L25.8328 7.87249C27.3179 7.23309 29.0401 7.9189 29.6769 9.40396Z" fill="#21BF61"/>
<path d="M31.0251 12.5391C30.3316 12.7995 29.5787 12.9438 28.7924 12.9438C26.178 12.9438 23.935 11.3608 22.963 9.10229L2.58731 17.8528C1.10226 18.4896 0.416452 20.2119 1.05327 21.6969L6.11948 33.4923C6.7563 34.9773 8.47854 35.6631 9.9636 35.0263L33.2114 25.0434C34.6965 24.4066 35.3823 22.6844 34.7455 21.1993L31.0251 12.5391Z" fill="#3694D1"/>
<path d="M28.7923 12.9439C29.5786 12.9439 30.3315 12.7995 31.025 12.5391L29.6792 9.40397C29.0423 7.91891 27.3201 7.2331 25.835 7.86992L22.9629 9.10231C23.9323 11.3608 26.1779 12.9439 28.7923 12.9439Z" fill="#34B1F7"/>
</svg>
