<svg width="1440" height="819" viewBox="0 0 1440 819" fill="none" xmlns="http://www.w3.org/2000/svg">
<g opacity="0.7" clip-path="url(#clip0_124_819)">
<path opacity="0.7" d="M1134.55 112H1341.3V297H1134.55V112Z" fill="url(#paint0_linear_124_819)" fill-opacity="0.15"/>
<path opacity="0.7" d="M718.961 298H925.714V477H718.961V298Z" fill="#F4F5F7"/>
<path opacity="0.7" d="M95.5846 298H302.338V478H95.5846V298Z" fill="url(#paint1_linear_124_819)" fill-opacity="0.15"/>
<path opacity="0.7" d="M304.416 20H511.169V112H304.416V20Z" fill="url(#paint2_linear_124_819)"/>
<path d="M1341.82 70V799" stroke="#E3E5E9"/>
<path d="M1134.03 14.5342V748.854" stroke="#E3E5E9"/>
<path d="M926.234 80V809" stroke="#E3E5E9"/>
<path d="M718.441 -5.61133V728.708" stroke="#E3E5E9"/>
<path d="M510.649 90V819" stroke="#E3E5E9"/>
<path d="M302.857 34.6802V769" stroke="#E3E5E9"/>
<path d="M95.0649 90V819" stroke="#E3E5E9"/>
<path d="M1440 111.5H41.5584" stroke="#E3E5E9"/>
<path d="M1419.22 297.5H-9.5129e-05" stroke="#E3E5E9"/>
<path d="M1388.05 477.5H41.5585" stroke="#E3E5E9"/>
</g>
<defs>
<linearGradient id="paint0_linear_124_819" x1="1237.92" y1="112" x2="1237.92" y2="297" gradientUnits="userSpaceOnUse">
<stop stop-color="#0057FF"/>
<stop offset="1" stop-color="#0057FF" stop-opacity="0"/>
</linearGradient>
<linearGradient id="paint1_linear_124_819" x1="198.961" y1="298" x2="198.961" y2="478" gradientUnits="userSpaceOnUse">
<stop stop-color="#0057FF"/>
<stop offset="1" stop-color="#0057FF" stop-opacity="0"/>
</linearGradient>
<linearGradient id="paint2_linear_124_819" x1="407.273" y1="112" x2="407.273" y2="20" gradientUnits="userSpaceOnUse">
<stop stop-color="#F4F5F7"/>
<stop offset="1" stop-color="#F4F5F7" stop-opacity="0"/>
</linearGradient>
<clipPath id="clip0_124_819">
<rect width="1440" height="819" fill="white" transform="matrix(-1 0 0 1 1440 0)"/>
</clipPath>
</defs>
</svg>
